<?xml version="1.0" encoding="UTF-8" standalone="no"?><!DOCTYPE svg PUBLIC "-//W3C//DTD SVG 1.1//EN" "http://www.w3.org/Graphics/SVG/1.1/DTD/svg11.dtd"><svg width="100%" height="100%" viewBox="0 0 1342 1509" version="1.1" xmlns="http://www.w3.org/2000/svg" xmlns:xlink="http://www.w3.org/1999/xlink" xml:space="preserve" xmlns:serif="http://www.serif.com/" style="fill-rule:evenodd;clip-rule:evenodd;stroke-linejoin:round;stroke-miterlimit:2;"><g id="Layer-1" serif:id="Layer 1"><path d="M822.978,973.992c-64.446,0 -123.903,-42.035 -143.181,-106.96l-25.784,-87.9c0,0 21.787,-56.381 -2.981,-133.309c-24.763,-76.935 -80.072,-149.931 -80.072,-149.931l-39.169,-133.538c-23.469,-79.116 21.628,-162.275 100.747,-185.759c79.106,-23.482 162.272,21.615 185.74,100.74l148.013,504.678c23.478,79.104 -21.631,162.272 -100.731,185.76c-14.185,4.203 -28.51,6.219 -42.582,6.219" style="fill:#f15722;fill-rule:nonzero;"/><path d="M429.662,703.817c-9.197,-16.075 -21.863,-26.975 -21.863,-26.975c-53.793,-39.107 -94.7,-112.344 -100.871,-173.591c-1.472,-14.716 -0.991,-29.216 1.24,-43.184c2.247,-14.004 6.253,-27.491 11.81,-40.185c23.346,-53.387 74.025,-92.934 136.112,-99.187c91.606,-9.235 173.331,57.547 182.566,149.15c4.881,48.456 -9.578,112.193 -38.294,159.503l-26.166,48.912l-67.25,31.75l-71.312,8.403l-5.972,-14.596Z" style="fill:#714448;fill-rule:nonzero;"/><path d="M438.234,747.82c0,0 -15.881,66.781 30.728,148.065c102.994,179.622 107.091,245.585 234.125,288.541c33.466,12.922 93.15,14.237 125.754,7.628c42.422,-8.575 80.797,-35.412 102.578,-76.65c38.575,-72.959 10.709,-163.362 -62.26,-201.919c-64.94,-34.325 -164.009,-133.653 -233.018,-235.456c-4.175,-6.166 -11.688,-9.353 -15.628,-15.516" style="fill:#59252e;fill-rule:nonzero;"/><path d="M335.245,433.734c11.059,17.932 13.228,71.032 2.084,76.075c-8.265,3.747 -55.975,-18.112 -67.022,-36.034c-11.065,-17.941 -5.487,-41.438 12.45,-52.5c17.932,-11.053 41.435,-5.472 52.488,12.459" style="fill:#fff;fill-rule:nonzero;"/><path d="M558.029,284.83c-6.243,-1.922 -12.815,-2.228 -19.359,-1.5c5.366,-5.325 9.912,-8.603 12.697,-8.675c8.172,1.256 15.778,-4.344 17.034,-12.497c1.266,-8.156 -4.337,-15.784 -12.497,-17.047c-16.722,-2.556 -33.712,10.778 -47.765,27.06c-1.26,-6.982 -7.36,-12.288 -14.707,-12.288c-8.259,0 -14.946,6.691 -14.946,14.938l0,45.143l26.428,9.928c2.365,-1.74 5.006,-3.512 7.812,-5.218c12.294,-7.538 27.681,-14 36.513,-11.282c7.893,2.422 16.265,-2 18.678,-9.89c2.425,-7.881 -2.003,-16.235 -9.888,-18.672" style="fill:#59252e;fill-rule:nonzero;"/><path d="M417.836,397.173c-4.078,20.678 12.463,71.172 24.653,72.015c9.066,0.594 46.116,-36.531 50.197,-57.206c4.091,-20.662 -9.334,-40.731 -30.003,-44.819c-20.678,-4.087 -40.737,9.341 -44.847,30.01" style="fill:#fff;fill-rule:nonzero;"/><path d="M479.312,913.768c-36.034,45.957 -24.665,103.482 22.966,110.979c30.809,9.34 208.25,18.662 208.25,18.662c0,0 -22.572,50.059 -10.772,55.116c39.716,-0.022 53.016,-87.794 53.016,-87.794c0,0 -201.003,-11.219 -232.822,-22.872c-31.813,-11.656 -17.772,-33.119 -17.772,-33.119l-22.865,-40.972Z" style="fill:#0d2225;fill-rule:nonzero;"/><path d="M992.727,633.261c-1.447,-0.325 -12.944,-5.297 -43.319,-1.403c19.022,-14.322 29.631,-13.012 30.959,-12.784c6.013,1.147 11.838,-2.81 13.01,-8.825c1.184,-6.047 -2.76,-11.925 -8.8,-13.116c-1.807,-0.325 -32.56,0.05 -63.819,30.088c0,0 -1.41,-13.075 3.503,-18.504c3.041,-3.328 3.378,-8.193 1.147,-11.853c-0.478,-0.815 -1.088,-1.575 -1.838,-2.243c-4.081,-3.704 -10.397,-3.385 -14.106,0.703c-18.9,20.859 -9.281,43.228 -8.878,44.156c0,0 -53.247,43.581 -91.781,54.9c-79.432,23.294 -149.841,-18.347 -149.841,-18.347c-10.762,-5.378 -23.831,-1.006 -29.209,9.775c-5.357,10.763 -0.988,23.831 9.781,29.2c0,0 92.269,41.497 171.697,18.197c79.44,-23.291 115.262,-67.141 115.262,-67.141c2.747,1.025 5.725,2.297 8.663,3.832c7.109,3.671 13.95,8.771 16.634,15.259c1.935,4.681 6.656,7.334 11.447,6.866c1.031,-0.116 2.097,-0.372 3.141,-0.807c5.7,-2.347 8.4,-8.872 6.056,-14.568c-4.341,-10.444 -10.594,-17.232 -16.925,-21.7c15.728,-3.447 31.962,0.034 32.281,0.09c6.006,1.353 11.975,-2.381 13.341,-8.387c1.375,-6.01 -2.369,-12.003 -8.406,-13.388" style="fill:#0d2225;fill-rule:nonzero;"/><path d="M626.268,568.889c0,0 43.885,127.125 42.194,153.859" style="fill:#fff;fill-rule:nonzero;"/><path d="M672.948,723.033l-8.962,-0.553c1.287,-20.437 -26.897,-108.447 -41.966,-152.125l8.491,-2.937c1.803,5.228 44.159,128.303 42.437,155.615" style="fill:#0d2225;fill-rule:nonzero;"/><path d="M305.443,450.042c0,7.321 -5.919,13.253 -13.244,13.253c-7.325,0 -13.24,-5.932 -13.24,-13.253c0,-7.31 5.915,-13.238 13.24,-13.238c7.325,0 13.244,5.928 13.244,13.238" style="fill:#0d2225;fill-rule:nonzero;"/><path d="M340.103,524.517c-8.609,0 -17.012,-12.797 -18.096,-14.5c-0.882,-1.404 -0.469,-3.229 0.925,-4.122c1.39,-0.885 3.24,-0.482 4.134,0.912c2.887,4.538 10.509,13.685 14.387,11.313c5.619,-3.444 10.96,-14.241 12.541,-18.113c0.641,-1.522 2.391,-2.25 3.919,-1.634c1.525,0.631 2.262,2.372 1.647,3.912c-0.263,0.632 -6.528,15.785 -14.991,20.941c-1.469,0.909 -2.978,1.291 -4.466,1.291" style="fill:#0d2225;fill-rule:nonzero;"/><path d="M456.402,396.488c1.45,3.919 5.812,5.9 9.721,4.44c3.925,-1.462 5.913,-5.815 4.454,-9.737c-1.463,-3.909 -5.822,-5.913 -9.735,-4.447c-3.919,1.469 -5.9,5.825 -4.44,9.744" style="fill:#0d2225;fill-rule:nonzero;"/><path d="M443.955,485.913c-9.775,0 -22.638,-8.046 -23.203,-8.409c-1.394,-0.878 -1.804,-2.725 -0.922,-4.141c0.884,-1.381 2.737,-1.815 4.137,-0.925c3.535,2.225 14.156,7.929 20.722,7.46c6.2,-0.435 6.447,-9.419 6.447,-9.51c0.025,-1.656 1.522,-2.943 3.053,-2.937c1.65,0.016 2.963,1.397 2.934,3.044c-0.093,5.047 -2.728,14.725 -12.006,15.384c-0.387,0.034 -0.778,0.034 -1.162,0.034" style="fill:#0d2225;fill-rule:nonzero;"/><path d="M476.012,354.804c-1.494,0 -2.947,-0.735 -3.8,-2.082c-5.725,-8.981 -12.228,-13.756 -19.363,-14.2c-11.668,-0.7 -23.462,10.329 -27.028,14.644c-1.569,1.916 -4.406,2.197 -6.319,0.603c-1.918,-1.575 -2.19,-4.409 -0.606,-6.328c0.638,-0.772 15.95,-19.05 34.506,-17.894c10.163,0.625 19.051,6.8 26.385,18.35c1.334,2.097 0.725,4.872 -1.363,6.204c-0.759,0.478 -1.593,0.703 -2.412,0.703" style="fill:#0d2225;fill-rule:nonzero;"/><path d="M344.699,408.886c-1.375,0 -2.725,-0.619 -3.612,-1.788c-16.363,-21.837 -37.972,-9.847 -38.869,-9.322c-2.159,1.222 -4.906,0.485 -6.144,-1.656c-1.237,-2.147 -0.512,-4.878 1.622,-6.125c10.081,-5.859 33.6,-10.962 50.585,11.694c1.493,1.993 1.087,4.815 -0.9,6.297c-0.804,0.606 -1.76,0.9 -2.682,0.9" style="fill:#0d2225;fill-rule:nonzero;"/><path d="M847.2,375.881c27.394,-12.025 63.178,11.012 50.11,45.981c-13.072,34.965 -112.078,164.875 -148.269,212.762c-36.203,47.875 -60.928,6.385 -60.928,6.385l-54.781,-96.503l0.709,-3.26c4.616,-22.534 6.444,-44.915 5.15,-65.009l-0.228,-2.863c0,0 74.809,135.057 84.15,131.313c9.347,-3.728 67.728,-77.697 99.49,-125.338c31.747,-47.631 37.844,-58.265 37.844,-58.265l-13.247,-45.203Z" style="fill:#fff;fill-rule:nonzero;"/><path d="M638.097,543.782l53.931,94.997c0.047,0.063 8.844,14.422 22.534,14.422c9.829,-0.013 20.216,-7.169 30.894,-21.309l5.541,-7.282c38.853,-51.368 129.878,-171.637 142.1,-204.331c5.119,-13.709 1.465,-23.419 -2.506,-29.169c-5.997,-8.603 -16.682,-13.953 -27.913,-13.953c-3.434,0 -6.791,0.5 -9.991,1.472l12.625,43.028l-0.971,1.663c-0.241,0.44 -6.516,11.318 -38.01,58.528c-28.828,43.259 -89.897,122.359 -101.55,127.025c-0.662,0.275 -1.353,0.381 -2.081,0.381l-0.009,0c-3.747,0 -9.397,0 -49.825,-67.875c-10.994,-18.447 -21.625,-37.044 -28.8,-49.725c-0.185,16.041 -2.075,33.209 -5.616,50.5l-0.353,1.628Zm76.465,118.394c-18.85,0 -29.843,-18.1 -30.306,-18.863l-55.69,-98.081l1.093,-4.95c4.541,-22.244 6.297,-44.309 5.035,-63.765l-1.713,-23.238l9.916,17.928c32.244,58.185 69.919,120.481 79.737,128.547c11.46,-8.641 64.241,-74.906 96.228,-122.906c24.885,-37.3 34.007,-51.947 36.722,-56.388l-13.812,-47.1l3.606,-1.59c5.45,-2.388 11.266,-3.603 17.3,-3.603c14.128,0 27.641,6.831 35.294,17.825c7.347,10.6 8.612,23.896 3.547,37.437c-12.691,33.934 -100.95,150.559 -143.372,206.6l-5.531,7.306c-12.454,16.491 -25.263,24.841 -38.05,24.841l-0.004,0Z" style="fill:#0d2225;fill-rule:nonzero;"/><path d="M479.312,913.768c-36.034,45.957 -24.665,103.482 22.966,110.979c30.809,9.34 208.25,18.662 208.25,18.662c0,0 -22.572,50.059 -10.772,55.116c39.716,-0.022 53.016,-87.794 53.016,-87.794c0,0 -201.003,-11.219 -232.822,-22.872c-31.813,-11.656 -17.772,-33.119 -17.772,-33.119l-22.865,-40.972Z" style="fill:#fff;fill-rule:nonzero;"/><path d="M478.797,922.075c-15.691,22.86 -20.447,49.06 -12.325,69.678c6.162,15.688 19.134,25.813 36.497,28.554l0.618,0.131c29.944,9.081 205.419,18.4 207.185,18.494l6.559,0.337l-2.706,5.994c-10.678,23.681 -15.666,44.537 -13.4,48.712c26.634,-1.872 41.619,-53.578 46.291,-79.047c-32,-1.862 -199.497,-12.006 -229.11,-22.856c-12.281,-4.478 -19.928,-11.025 -22.69,-19.394c-2.491,-7.5 -0.279,-14.34 1.35,-17.878l-18.269,-32.725Zm220.044,180.932l-0.863,-0.366c-1.587,-0.672 -3.781,-2.166 -5.053,-5.45c-4.216,-10.809 5.591,-36.938 10.903,-49.634c-32.544,-1.81 -173.859,-9.975 -202.55,-18.429c-20.506,-3.312 -35.828,-15.412 -43.178,-34.071c-9.941,-25.279 -3.169,-57.466 17.687,-84.05l4.16,-5.316l27.472,49.247l-1.485,2.281c-0.025,0.013 -3.862,6.197 -1.653,12.709c1.894,5.604 7.685,10.216 17.225,13.713c30.825,11.3 229.525,22.481 231.525,22.594l4.931,0.272l-0.74,4.89c-0.569,3.747 -14.372,91.61 -57.463,91.61l-0.918,0Z" style="fill:#0d2225;fill-rule:nonzero;"/><path d="M369.127,640.56c-12.44,34.243 4.266,66.484 4.266,66.484c0,0 60.709,119.703 254.675,-51.094l47.315,-37.365l-20.671,-36.425c-12.732,10.89 -27.463,24.243 -42.938,37.559c-190.009,163.281 -216.144,47.491 -216.144,47.491l-2.959,-2.544c-7.803,-6.894 -23.544,-24.106 -23.544,-24.106" style="fill:#fff;fill-rule:nonzero;"/><path d="M371.155,649.352c-7.169,29.234 6.094,55.337 6.247,55.622c0.806,1.587 20.29,38.347 72.453,38.347c47.894,0 106.853,-30.532 175.244,-90.735l44.468,-35.131l-16.075,-28.313c-5.115,4.425 -10.524,9.204 -16.171,14.188c-7.297,6.434 -14.832,13.103 -22.619,19.803c-68.269,58.656 -123.544,88.397 -164.316,88.397c-25.434,0 -40.168,-11.731 -48.056,-21.597c-6.75,-8.428 -9.694,-16.856 -10.687,-20.212l-1.916,-1.644c-5.078,-4.51 -13.206,-13.01 -18.572,-18.725m78.7,102.953c-57.869,0 -79.569,-41.469 -80.459,-43.225c-0.71,-1.359 -17.463,-34.359 -4.491,-70.047l2.538,-6.978l5.006,5.478c0.165,0.169 15.678,17.097 23.209,23.769l4.019,3.469l0.341,1.446c0.331,1.479 8.89,36.319 50.368,36.319c38.55,0 91.875,-29.009 158.453,-86.234c7.754,-6.66 15.269,-13.297 22.538,-19.71c7.225,-6.375 14.044,-12.406 20.412,-17.837l4.135,-3.556l25.275,44.518l-50.338,39.754c-69.893,61.553 -130.859,92.834 -181.006,92.834" style="fill:#0d2225;fill-rule:nonzero;"/><path d="M628.069,690.987c-0.025,0 -0.038,0 -0.075,-0.006c-10.522,-0.238 -23.038,-12.594 -24.441,-13.997c-1.178,-1.185 -1.153,-3.075 0.016,-4.232c1.178,-1.165 3.081,-1.165 4.234,0.007c3.335,3.359 13.453,12.072 20.331,12.231c1.66,0.047 2.972,1.425 2.938,3.069c-0.044,1.64 -1.381,2.928 -3.003,2.928" style="fill:#0d2225;fill-rule:nonzero;"/><path d="M626.931,702.495c-20.857,0 -30.472,-20.903 -30.575,-21.144c-0.678,-1.506 0,-3.278 1.509,-3.947c1.509,-0.684 3.284,-0.009 3.962,1.497c0.388,0.888 9.922,21.391 30.885,16.969c1.622,-0.341 3.206,0.703 3.559,2.325c0.344,1.616 -0.703,3.209 -2.322,3.547c-2.465,0.519 -4.8,0.753 -7.018,0.753" style="fill:#0d2225;fill-rule:nonzero;"/><path d="M335.245,433.734c-3.563,-5.8 -8.459,-10.284 -14.031,-13.368c10.256,19.281 12,69.615 1.168,74.5c-6.143,2.781 -34.078,-8.572 -52.553,-21.96c0.16,0.285 0.307,0.572 0.478,0.869c11.047,17.922 58.757,39.781 67.022,36.034c11.144,-5.043 8.975,-58.143 -2.084,-76.075" style="fill:#a7a9ac;fill-rule:nonzero;"/><path d="M821.724,526.325c-1.746,-1.353 -39.425,-29.288 -91.481,-1.1c1.216,-2.966 3.028,-6.103 5.744,-9.244c3.762,-4.372 4.037,-10.566 1.084,-15.203c-0.656,-1.01 -1.45,-1.95 -2.431,-2.794c-5.331,-4.597 -13.384,-3.991 -17.981,1.347c-18.606,21.587 -14.31,43.822 -11.45,52.703l-2.556,-2.647l-14.541,8.525l19.747,30.472l18.59,-14.516c23.244,-0.6 44.091,23.938 44.394,24.263c3.997,4.794 11.081,5.45 15.894,1.466c4.812,-3.994 5.475,-11.104 1.491,-15.922c-0.475,-0.563 -5.616,-6.638 -13.922,-13.347c10.781,2.544 18.712,6.328 18.931,6.431c6.322,3.1 13.95,0.538 17.084,-5.766c3.125,-6.328 0.535,-13.968 -5.768,-17.112c-1.325,-0.638 -24.669,-11.984 -50.857,-11.25c30.932,-11.231 51.428,3.125 52.628,4.016c5.597,4.196 13.554,3.118 17.81,-2.454c4.262,-5.6 3.206,-13.603 -2.41,-17.868" style="fill:#fff;fill-rule:nonzero;"/><path d="M727.275,569.368c24.638,0 46.072,24.788 46.982,25.844c2.387,2.865 6.803,3.265 9.603,0.95c1.418,-1.181 2.265,-2.816 2.443,-4.628c0.157,-1.813 -0.387,-3.578 -1.54,-4.978c-0.513,-0.61 -5.381,-6.36 -13.281,-12.738c-1.65,-1.325 -2.147,-3.587 -1.207,-5.462c0.916,-1.897 3.016,-2.888 5.047,-2.413c11.553,2.731 19.819,6.75 19.897,6.778c4.063,1.994 9.091,0.235 11.069,-3.728c0.984,-1.978 1.134,-4.225 0.434,-6.312c-0.712,-2.094 -2.206,-3.782 -4.156,-4.75c-0.934,-0.469 -23.606,-11.519 -48.738,-10.8c-2.168,0.05 -4.134,-1.488 -4.553,-3.663c-0.403,-2.159 0.822,-4.309 2.872,-5.062c8.316,-3.025 16.65,-4.544 24.803,-4.544c18.932,0 30.757,8.219 32.035,9.15c1.484,1.119 3.193,1.697 4.99,1.697c2.607,0 5.013,-1.191 6.594,-3.253c2.738,-3.619 2.038,-8.807 -1.562,-11.569c-0.679,-0.519 -16.857,-12.703 -42.385,-12.703c-14.659,0 -29.544,4.031 -44.237,11.99c-1.685,0.894 -3.732,0.669 -5.153,-0.606c-1.407,-1.281 -1.866,-3.281 -1.144,-5.05c1.509,-3.7 3.697,-7.228 6.487,-10.475c2.35,-2.737 2.65,-6.791 0.71,-9.834c-0.419,-0.669 -0.947,-1.266 -1.563,-1.791c-3.362,-2.897 -8.815,-2.475 -11.656,0.853c-17.197,19.944 -13.125,40.475 -10.581,48.385c0.659,1.978 -0.172,4.156 -1.938,5.221c-1.794,1.079 -4.094,0.794 -5.55,-0.703l-0.119,-0.118l-7.434,4.356l14.506,22.409l14.735,-11.494c0.759,-0.6 1.693,-0.925 2.656,-0.946l0.934,-0.013Zm52.266,37.331c-4.7,0 -9.153,-2.068 -12.172,-5.703c-0.153,-0.181 -19.109,-22.115 -39.378,-22.628l-17.378,13.572c-0.988,0.759 -2.272,1.087 -3.5,0.869c-1.25,-0.188 -2.341,-0.935 -3.031,-1.985l-19.747,-30.475c-0.657,-1.034 -0.875,-2.287 -0.597,-3.478c0.284,-1.2 1.053,-2.219 2.097,-2.847l13.303,-7.793c-2.15,-11.738 -2.06,-31.072 14.109,-49.844c3.285,-3.803 8.047,-5.975 13.069,-5.975c4.141,0 8.131,1.487 11.269,4.178c1.253,1.075 2.372,2.347 3.287,3.775c3.166,4.997 3.5,11.241 1.116,16.469c11.525,-4.419 23.125,-6.66 34.634,-6.66c28.053,0 45.9,13.082 47.85,14.575c7.547,5.753 8.997,16.613 3.241,24.169c-3.306,4.306 -8.303,6.781 -13.738,6.781c-0.834,0 -1.668,-0.056 -2.5,-0.181c1.672,1.788 2.95,3.916 3.76,6.294c1.481,4.362 1.156,9.044 -0.894,13.165c-2.938,5.907 -8.856,9.591 -15.459,9.591c-2.404,0 -4.744,-0.497 -6.96,-1.453c2.535,3.203 3.71,7.197 3.319,11.262c-0.375,4.207 -2.394,8 -5.65,10.697c-2.825,2.332 -6.391,3.625 -10.05,3.625" style="fill:#0d2225;fill-rule:nonzero;"/><path d="M432.28,401.27c3.147,-18.816 19.591,-32.053 38.088,-31.816c-2.872,-1.287 -5.953,-2.266 -9.213,-2.812c-20.784,-3.469 -40.44,10.562 -43.906,31.34c-3.466,20.794 14.572,70.775 26.772,71.231c1.556,0.057 3.919,-1.04 6.747,-2.965c-10.588,-14.131 -21.206,-48.603 -18.488,-64.978" style="fill:#a7a9ac;fill-rule:nonzero;"/><path d="M440.499,747.09c39.503,7.05 98.612,-12.803 187.568,-91.14" style="fill:#fff;fill-rule:nonzero;"/><path d="M455.78,752.895c-5.547,0 -10.912,-0.459 -16.068,-1.372l1.578,-8.856c44.959,8.006 106.806,-22.278 183.809,-90.081l5.941,6.743c-70.616,62.182 -129.444,93.566 -175.26,93.566" style="fill:#0d2225;fill-rule:nonzero;"/><path d="M439.244,746.544c39.897,4.303 95.769,-8.659 184.719,-87.003l12.297,18.422c0,0 -4.884,4.99 -8.763,17.069c-89.443,53.787 -148.934,61.262 -186.05,52.453l-2.203,-0.941Z" style="fill:#361215;fill-rule:nonzero;"/><path d="M547.585,1041.68c62.181,12.068 158.594,25.828 158.594,25.828c0,0 -26.947,47.847 -15.65,53.925c39.562,3.547 58.512,-75.01 58.512,-75.01l-207.54,-15.497c0,0 0.471,0.81 6.084,10.754" style="fill:#361215;fill-rule:nonzero;"/><path d="M878.341,482.109l-10.51,-35.843l-45.228,59.228l-63.678,83.74c0,0 -32.291,40.197 -35.813,41.616c-9.34,3.728 -84.15,-131.313 -84.15,-131.313l0.229,2.844c1.293,20.113 -0.535,42.488 -5.15,65.019l-0.707,3.262l54.778,96.491c0,0 24.725,41.488 60.929,-6.375c8.031,-10.622 21.853,-29.525 37.537,-51.147c2.684,0.085 5.409,-0.712 7.628,-2.559c3.8,-3.144 4.966,-8.219 3.344,-12.585c2.203,-3.05 4.422,-6.103 6.637,-9.181c5.422,0.935 11.013,-1.665 13.591,-6.837c1.916,-3.853 1.675,-8.188 -0.203,-11.713c2.587,-3.581 5.162,-7.162 7.706,-10.684c2.419,-0.766 4.663,-2.241 6.316,-4.41c1.815,-2.381 2.615,-5.181 2.559,-7.946c24.46,-34.019 44.185,-61.607 44.185,-61.607" style="fill:#be4726;fill-rule:nonzero;"/><path d="M933.068,668.688c0,0 -3.828,-1.747 -6.575,-2.785c0,0 -35.819,43.857 -115.26,67.15c-50.543,14.819 -106.259,3.419 -140.109,-6.837c5.059,6.512 10.197,12.962 15.388,19.375c33.931,8.644 81.24,15.309 124.721,2.559c79.441,-23.303 115.26,-67.14 115.26,-67.14c2.747,1.025 11.509,4.534 11.509,4.534l-4.934,-16.856Z" style="fill:#be4726;fill-rule:nonzero;"/><path d="M639.534,714.839c-5.181,-2.565 -8.853,-6.947 -10.7,-11.956c-3.831,10.303 0.632,22.053 10.7,27.063c0,0 18.925,8.5 46.975,15.646c-5.187,-6.415 -10.325,-12.862 -15.387,-19.375c-19.331,-5.887 -31.588,-11.378 -31.588,-11.378" style="fill:#361215;fill-rule:nonzero;"/><path d="M425.762,706.053c-8.203,-14.34 -19.46,-24.543 -20.766,-25.706c-53,-38.584 -96.109,-112.834 -102.544,-176.631l8.963,-0.906c6.194,61.553 47.834,133.197 99.031,170.387l0.291,0.244c0.544,0.462 13.359,11.594 22.831,28.153l-7.806,4.459Z" style="fill:#0d2225;fill-rule:nonzero;"/><path d="M604.201,631.681l-7.684,-4.669c27.422,-45.15 42.556,-108.147 37.662,-156.722c-4.334,-43.106 -25.222,-81.944 -58.759,-109.353c-33.559,-27.413 -75.784,-40.128 -118.881,-35.772c-58.216,5.866 -108.966,42.847 -132.438,96.503l-8.244,-3.603c24.775,-56.631 78.338,-95.653 139.775,-101.847c45.504,-4.584 90.057,8.822 125.469,37.763c35.416,28.925 57.444,69.915 62.035,115.403c5.065,50.372 -10.579,115.593 -38.935,162.297" style="fill:#0d2225;fill-rule:nonzero;"/><path d="M940.441,997.866l-18.438,-26.994l-72.309,97.14c28.006,38.641 72.837,45.435 80.312,34.997c7.46,-10.431 -29.897,-34.997 -29.897,-34.997l26.91,-33.946l20.937,-4.01l-7.515,-32.19Z" style="fill:#361215;fill-rule:nonzero;"/><path d="M449.041,771.599c-0.388,0 -0.8,-0.075 -1.188,-0.234c-1.512,-0.663 -2.216,-2.425 -1.556,-3.947c2.772,-6.41 0.79,-22.86 -0.213,-28.647c-0.278,-1.628 0.819,-3.175 2.447,-3.466c1.619,-0.268 3.188,0.819 3.456,2.457c0.404,2.315 3.782,22.821 -0.187,32.046c-0.491,1.116 -1.597,1.791 -2.759,1.791" style="fill:#0d2225;fill-rule:nonzero;"/><path d="M626.268,568.889c0,0 43.885,127.125 42.194,153.859" style="fill:#fff;fill-rule:nonzero;"/><path d="M672.948,723.033l-8.962,-0.553c1.287,-20.437 -26.897,-108.447 -41.966,-152.125l8.491,-2.937c1.803,5.228 44.159,128.303 42.437,155.615" style="fill:#0d2225;fill-rule:nonzero;"/><path d="M369.127,640.56c-12.44,34.243 4.266,66.484 4.266,66.484c0,0 60.709,119.703 254.675,-51.094l47.315,-37.365l-20.671,-36.425c-12.732,10.89 -27.463,24.243 -42.938,37.559c-190.009,163.281 -216.144,47.491 -216.144,47.491l-2.959,-2.544c-7.803,-6.894 -23.544,-24.106 -23.544,-24.106" style="fill:#fff;fill-rule:nonzero;"/><path d="M777.077,338.811c0,10.481 -8.497,18.972 -18.975,18.972c-10.481,0 -18.972,-8.491 -18.972,-18.972c0,-10.488 8.491,-18.966 18.972,-18.966c10.478,0 18.975,8.478 18.975,18.966" style="fill:#0d2225;fill-rule:nonzero;"/><path d="M666.014,384.215c0,10.478 -8.493,18.975 -18.971,18.975c-10.476,0 -18.976,-8.497 -18.976,-18.975c0,-10.478 8.5,-18.963 18.976,-18.963c10.478,0 18.971,8.485 18.971,18.963" style="fill:#0d2225;fill-rule:nonzero;"/><path d="M758.101,259.726l-45.697,60.119" style="fill:none;fill-rule:nonzero;"/><path d="M712.404,324.333c-0.956,0 -1.915,-0.3 -2.725,-0.915c-1.968,-1.497 -2.371,-4.319 -0.856,-6.303l45.703,-60.107c1.503,-1.981 4.328,-2.356 6.313,-0.865c1.956,1.503 2.353,4.325 0.853,6.3l-45.719,60.115c-0.884,1.163 -2.222,1.775 -3.569,1.775" style="fill:#0d2225;fill-rule:nonzero;"/><path d="M647.042,334.789c0,0 -35.772,1.044 -49.007,18.962" style="fill:#fff;fill-rule:nonzero;"/><path d="M598.037,358.242c-0.925,0 -1.875,-0.279 -2.679,-0.872c-1.993,-1.482 -2.418,-4.288 -0.94,-6.291c14.365,-19.45 50.95,-20.747 52.49,-20.791c2.441,-0.109 4.544,1.882 4.622,4.363c0.078,2.478 -1.875,4.55 -4.362,4.622c-0.325,0.019 -33.744,1.215 -45.525,17.147c-0.885,1.187 -2.231,1.822 -3.606,1.822" style="fill:#0d2225;fill-rule:nonzero;"/><path d="M704.445,481.438c-6.95,0 -13.49,-3.044 -19.497,-9.078c-1.771,-1.757 -1.771,-4.607 0,-6.363c1.754,-1.747 4.604,-1.74 6.357,0.016c5.228,5.24 10.528,7.237 16.24,6.131c19.791,-3.912 40.21,-43.384 46.403,-58.272c0.96,-2.29 3.579,-3.375 5.891,-2.412c2.281,0.953 3.384,3.578 2.422,5.865c-1,2.366 -24.469,58.013 -52.969,63.628c-1.64,0.325 -3.262,0.485 -4.847,0.485" style="fill:#0d2225;fill-rule:nonzero;"/><path d="M782.75,1200.41c-28.843,0 -60.281,-3.672 -81.284,-11.772c-99.894,-33.778 -124.797,-81.303 -179.331,-185.391c-15.882,-30.325 -33.878,-64.681 -57.082,-105.134c-46.94,-81.869 -31.853,-148.534 -31.193,-151.341l8.759,2.094c-0.153,0.644 -14.834,66.175 30.238,144.769c23.281,40.615 41.337,75.053 57.237,105.425c53.394,101.9 77.766,148.415 174.431,181.119c32.569,12.559 91.128,13.996 123.441,7.478c42.831,-8.657 79.094,-35.766 99.5,-74.35c18.084,-34.225 21.756,-73.45 10.356,-110.432c-11.412,-36.987 -36.528,-67.334 -70.765,-85.428c-66.86,-35.337 -165.557,-134.984 -234.644,-236.893c-1.26,-1.844 -4.575,-3.05 -7.8,-4.191c-4.394,-1.597 -9.394,-3.384 -12.188,-7.759l7.575,-4.841c1.15,1.797 4.466,2.984 7.653,4.128c4.369,1.563 9.307,3.344 12.197,7.619c67.282,99.206 166.76,199.819 231.422,233.997c36.338,19.203 63.035,51.431 75.15,90.709c12.106,39.284 8.206,80.944 -11.009,117.297c-21.681,40.978 -60.185,69.762 -105.691,78.953c-12.694,2.578 -29.356,3.944 -46.972,3.944" style="fill:#0d2225;fill-rule:nonzero;"/><path d="M482.981,315.886c6.159,0.647 18.209,2.022 28.896,4.044c6.95,-4.116 21.26,-11.666 32.688,-11.666c2.2,0 4.203,0.278 6.006,0.838c1.006,0.303 2.041,0.465 3.085,0.465c4.593,0 8.603,-2.981 9.978,-7.384c1.681,-5.506 -1.416,-11.359 -6.925,-13.059c-5.2,-1.607 -11.11,-2.053 -17.538,-1.335l-12.822,1.438l9.153,-9.091c8.863,-8.8 13.235,-9.909 15.741,-9.972l0.409,-0.015l0.404,0.062c5.809,0.897 11.037,-3.075 11.912,-8.734c0.866,-5.694 -3.05,-11.041 -8.741,-11.919c-12.509,-1.916 -27.643,6.966 -43.7,25.547l-6.15,7.147l-1.675,-9.281c-0.884,-4.975 -5.225,-8.588 -10.271,-8.588c-5.766,0 -10.45,4.684 -10.45,10.438l0,41.065Zm30.6,13.544l-1.732,-0.347c-14.687,-2.906 -33.59,-4.628 -33.775,-4.644l-4.084,-0.375l0,-49.243c0,-10.707 8.712,-19.438 19.441,-19.438c6.637,0 12.578,3.341 16.096,8.534c16.654,-17.618 32.563,-25.471 47.066,-23.24c10.597,1.625 17.891,11.575 16.263,22.172c-1.441,9.303 -9.138,16.115 -18.46,16.462c1.706,0.313 3.353,0.725 4.953,1.219c10.26,3.15 16.016,14.056 12.872,24.3c-2.531,8.209 -9.997,13.716 -18.565,13.716c-1.947,0 -3.875,-0.285 -5.732,-0.857c-0.943,-0.293 -2.062,-0.434 -3.359,-0.434c-6.969,0 -17.988,4.206 -29.491,11.247l-1.493,0.928Z" style="fill:#0d2225;fill-rule:nonzero;"/><path d="M305.443,450.042c0,7.321 -5.919,13.253 -13.244,13.253c-7.325,0 -13.24,-5.932 -13.24,-13.253c0,-7.31 5.915,-13.238 13.24,-13.238c7.325,0 13.244,5.928 13.244,13.238" style="fill:#0d2225;fill-rule:nonzero;"/><path d="M340.103,524.517c-8.609,0 -17.012,-12.797 -18.096,-14.5c-0.882,-1.404 -0.469,-3.229 0.925,-4.122c1.39,-0.885 3.24,-0.482 4.134,0.912c2.887,4.538 10.509,13.685 14.387,11.313c5.619,-3.444 10.96,-14.241 12.541,-18.113c0.641,-1.522 2.391,-2.25 3.919,-1.634c1.525,0.631 2.262,2.372 1.647,3.912c-0.263,0.632 -6.528,15.785 -14.991,20.941c-1.469,0.909 -2.978,1.291 -4.466,1.291" style="fill:#0d2225;fill-rule:nonzero;"/><path d="M455.233,370.926c-15.988,0 -29.863,11.406 -32.972,27.138c-3.147,15.915 7.003,50.618 16.522,63.05c2.365,3.068 3.718,3.497 3.962,3.581c7.728,-0.819 41.794,-34.656 45.538,-53.581c3.596,-18.197 -8.282,-35.947 -26.479,-39.535c-2.162,-0.434 -4.384,-0.653 -6.572,-0.653m-12.515,102.756l-0.535,-0.012c-3.618,-0.25 -7.071,-2.578 -10.531,-7.094c-10.915,-14.234 -21.909,-51.584 -18.212,-70.262c3.94,-19.919 21.531,-34.372 41.793,-34.372c2.769,0 5.569,0.262 8.31,0.809c23.069,4.563 38.128,27.038 33.553,50.103c-4.256,21.553 -41.722,60.828 -54.378,60.828" style="fill:#0d2225;fill-rule:nonzero;"/><path d="M456.402,396.488c1.45,3.919 5.812,5.9 9.721,4.44c3.925,-1.462 5.913,-5.815 4.454,-9.737c-1.463,-3.909 -5.822,-5.913 -9.735,-4.447c-3.919,1.469 -5.9,5.825 -4.44,9.744" style="fill:#0d2225;fill-rule:nonzero;"/><path d="M443.955,485.913c-9.775,0 -22.638,-8.046 -23.203,-8.409c-1.394,-0.878 -1.804,-2.725 -0.922,-4.141c0.884,-1.381 2.737,-1.815 4.137,-0.925c3.535,2.225 14.156,7.929 20.722,7.46c6.2,-0.435 6.447,-9.419 6.447,-9.51c0.025,-1.656 1.522,-2.943 3.053,-2.937c1.65,0.016 2.963,1.397 2.934,3.044c-0.093,5.047 -2.728,14.725 -12.006,15.384c-0.387,0.034 -0.778,0.034 -1.162,0.034" style="fill:#0d2225;fill-rule:nonzero;"/><path d="M476.012,354.804c-1.494,0 -2.947,-0.735 -3.8,-2.082c-5.725,-8.981 -12.228,-13.756 -19.363,-14.2c-11.668,-0.7 -23.462,10.329 -27.028,14.644c-1.569,1.916 -4.406,2.197 -6.319,0.603c-1.918,-1.575 -2.19,-4.409 -0.606,-6.328c0.638,-0.772 15.95,-19.05 34.506,-17.894c10.163,0.625 19.051,6.8 26.385,18.35c1.334,2.097 0.725,4.872 -1.363,6.204c-0.759,0.478 -1.593,0.703 -2.412,0.703" style="fill:#0d2225;fill-rule:nonzero;"/><path d="M344.699,408.886c-1.375,0 -2.725,-0.619 -3.612,-1.788c-16.363,-21.837 -37.972,-9.847 -38.869,-9.322c-2.159,1.222 -4.906,0.485 -6.144,-1.656c-1.237,-2.147 -0.512,-4.878 1.622,-6.125c10.081,-5.859 33.6,-10.962 50.585,11.694c1.493,1.993 1.087,4.815 -0.9,6.297c-0.804,0.606 -1.76,0.9 -2.682,0.9" style="fill:#0d2225;fill-rule:nonzero;"/><path d="M369.046,592.896c-5.175,0 -9.359,-3.591 -12.381,-6.181c-4.637,-3.997 -5.734,-4.288 -7.384,-3.278c-2.119,1.3 -4.885,0.643 -6.178,-1.488c-1.3,-2.106 -0.632,-4.894 1.481,-6.181c7.681,-4.706 13.853,0.619 17.95,4.122c4.228,3.631 5.869,4.612 7.931,3.631c2.769,-1.334 3.688,-4.916 4.863,-10.65c1.293,-6.306 2.906,-14.141 10.665,-16.925c7.969,-2.85 13.9,2.756 18.231,6.859c3.95,3.735 6.544,5.972 9.35,5.275c2.516,-0.615 3.447,-3.172 4.822,-8.472c1.475,-5.65 3.491,-13.393 12.125,-14.587c7.972,-1.1 13.375,4.578 18.135,9.581c3.509,3.706 6.837,7.2 10.312,7.2c0.119,0 0.219,-0.012 0.347,-0.012c2.403,0 4.403,1.928 4.484,4.356c0.075,2.469 -1.875,4.569 -4.34,4.647c-7.572,0.253 -12.766,-5.194 -17.325,-10c-4.341,-4.553 -7.241,-7.31 -10.391,-6.872c-2.297,0.337 -3.14,2.184 -4.644,7.962c-1.434,5.472 -3.39,12.972 -11.396,14.932c-7.754,1.893 -13.247,-3.294 -17.66,-7.482c-4.34,-4.115 -6.512,-5.818 -9.022,-4.918c-2.853,1.025 -3.715,4.553 -4.887,10.262c-1.238,6.05 -2.791,13.594 -9.803,16.947c-1.866,0.888 -3.635,1.272 -5.285,1.272" style="fill:#0d2225;fill-rule:nonzero;"/><path d="M479.312,913.768c-36.034,45.957 -24.665,103.482 22.966,110.979c30.809,9.34 208.25,18.662 208.25,18.662c0,0 -22.572,50.059 -10.772,55.116c39.716,-0.022 53.016,-87.794 53.016,-87.794c0,0 -201.003,-11.219 -232.822,-22.872c-31.813,-11.656 -17.772,-33.119 -17.772,-33.119l-22.865,-40.972Z" style="fill:#fff;fill-rule:nonzero;"/><path d="M478.797,922.075c-15.691,22.86 -20.447,49.06 -12.325,69.678c6.162,15.688 19.134,25.813 36.497,28.554l0.618,0.131c29.944,9.081 205.419,18.4 207.185,18.494l6.559,0.337l-2.706,5.994c-10.678,23.681 -15.666,44.537 -13.4,48.712c26.634,-1.872 41.619,-53.578 46.291,-79.047c-32,-1.862 -199.497,-12.006 -229.11,-22.856c-12.281,-4.478 -19.928,-11.025 -22.69,-19.394c-2.491,-7.5 -0.279,-14.34 1.35,-17.878l-18.269,-32.725Zm220.044,180.932l-0.863,-0.366c-1.587,-0.672 -3.781,-2.166 -5.053,-5.45c-4.216,-10.809 5.591,-36.938 10.903,-49.634c-32.544,-1.81 -173.859,-9.975 -202.55,-18.429c-20.506,-3.312 -35.828,-15.412 -43.178,-34.071c-9.941,-25.279 -3.169,-57.466 17.687,-84.05l4.16,-5.316l27.472,49.247l-1.485,2.281c-0.025,0.013 -3.862,6.197 -1.653,12.709c1.894,5.604 7.685,10.216 17.225,13.713c30.825,11.3 229.525,22.481 231.525,22.594l4.931,0.272l-0.74,4.89c-0.569,3.747 -14.372,91.61 -57.463,91.61l-0.918,0Z" style="fill:#0d2225;fill-rule:nonzero;"/><path d="M444.69,706.828c-0.328,0 -0.668,-0.062 -1.003,-0.178c-1.553,-0.556 -2.372,-2.275 -1.822,-3.834c2.544,-7.216 -5.187,-17.306 -8.381,-20.597c-1.15,-1.187 -1.125,-3.075 0.066,-4.244c1.165,-1.14 3.078,-1.122 4.234,0.063c0.575,0.587 14.044,14.622 9.728,26.775c-0.434,1.24 -1.597,2.015 -2.822,2.015" style="fill:#0d2225;fill-rule:nonzero;"/><path d="M465.508,779.012c-1.047,0 -2.053,-0.538 -2.61,-1.522c-2.981,-5.2 -5.993,-25.606 -6.571,-29.647c-0.229,-1.644 0.912,-3.141 2.55,-3.381c1.659,-0.235 3.159,0.9 3.393,2.537c1.257,8.903 3.963,24.26 5.828,27.522c0.822,1.438 0.319,3.263 -1.118,4.078c-0.463,0.282 -0.969,0.413 -1.472,0.413" style="fill:#0d2225;fill-rule:nonzero;"/><path d="M371.155,649.352c-7.169,29.234 6.094,55.337 6.247,55.622c0.806,1.587 20.29,38.347 72.453,38.347c47.894,0 106.853,-30.532 175.244,-90.735l44.468,-35.131l-16.075,-28.313c-5.115,4.425 -10.524,9.204 -16.171,14.188c-7.297,6.434 -14.832,13.103 -22.619,19.803c-68.269,58.656 -123.544,88.397 -164.316,88.397c-25.434,0 -40.168,-11.731 -48.056,-21.597c-6.75,-8.428 -9.694,-16.856 -10.687,-20.212l-1.916,-1.644c-5.078,-4.51 -13.206,-13.01 -18.572,-18.725m78.7,102.953c-57.869,0 -79.569,-41.469 -80.459,-43.225c-0.71,-1.359 -17.463,-34.359 -4.491,-70.047l2.538,-6.978l5.006,5.478c0.165,0.169 15.678,17.097 23.209,23.769l4.019,3.469l0.341,1.446c0.331,1.479 8.89,36.319 50.368,36.319c38.55,0 91.875,-29.009 158.453,-86.234c7.754,-6.66 15.269,-13.297 22.538,-19.71c7.225,-6.375 14.044,-12.406 20.412,-17.837l4.135,-3.556l25.275,44.518l-50.338,39.754c-69.893,61.553 -130.859,92.834 -181.006,92.834" style="fill:#0d2225;fill-rule:nonzero;"/><path d="M628.069,690.987c-0.025,0 -0.038,0 -0.075,-0.006c-10.522,-0.238 -23.038,-12.594 -24.441,-13.997c-1.178,-1.185 -1.153,-3.075 0.016,-4.232c1.178,-1.165 3.081,-1.165 4.234,0.007c3.335,3.359 13.453,12.072 20.331,12.231c1.66,0.047 2.972,1.425 2.938,3.069c-0.044,1.64 -1.381,2.928 -3.003,2.928" style="fill:#0d2225;fill-rule:nonzero;"/><path d="M626.931,702.495c-20.857,0 -30.472,-20.903 -30.575,-21.144c-0.678,-1.506 0,-3.278 1.509,-3.947c1.509,-0.684 3.284,-0.009 3.962,1.497c0.388,0.888 9.922,21.391 30.885,16.969c1.622,-0.341 3.206,0.703 3.559,2.325c0.344,1.616 -0.703,3.209 -2.322,3.547c-2.465,0.519 -4.8,0.753 -7.018,0.753" style="fill:#0d2225;fill-rule:nonzero;"/><path d="M451.673,707.237c-0.085,0 -0.156,0 -0.235,-0.009c-1.659,-0.122 -2.887,-1.55 -2.762,-3.209c2.419,-31.341 -22.153,-42.025 -23.197,-42.472c-1.516,-0.653 -2.247,-2.4 -1.597,-3.925c0.628,-1.531 2.372,-2.263 3.9,-1.622c0.297,0.122 29.631,12.716 26.881,48.478c-0.131,1.575 -1.437,2.759 -2.99,2.759" style="fill:#0d2225;fill-rule:nonzero;"/><path d="M459.809,707.237c-1.457,0 -2.728,-1.059 -2.963,-2.537c-3.168,-20.406 17.622,-35.738 18.519,-36.378c1.338,-0.975 3.2,-0.678 4.188,0.662c0.962,1.335 0.662,3.21 -0.666,4.185c-0.191,0.131 -18.731,13.834 -16.119,30.615c0.26,1.66 -0.862,3.169 -2.503,3.425c-0.153,0.019 -0.306,0.028 -0.456,0.028" style="fill:#0d2225;fill-rule:nonzero;"/><path d="M567.94,612.905c0,0 4.066,27.625 13.512,31.587" style="fill:#fff;fill-rule:nonzero;"/><path d="M581.453,647.487c-0.378,0 -0.778,-0.062 -1.156,-0.219c-10.472,-4.4 -14.6,-29.031 -15.319,-33.918c-0.243,-1.657 0.885,-3.166 2.529,-3.407c1.631,-0.231 3.15,0.897 3.39,2.525c1.603,10.779 6.294,27.004 11.713,29.26c1.531,0.662 2.253,2.387 1.622,3.925c-0.497,1.15 -1.604,1.834 -2.779,1.834" style="fill:#0d2225;fill-rule:nonzero;"/><path d="M585.686,646.643c-1.1,0 -2.156,-0.609 -2.684,-1.653c-12.779,-25.253 1.94,-49.275 2.565,-50.281c0.866,-1.397 2.719,-1.812 4.122,-0.934c1.403,0.881 1.831,2.725 0.966,4.128c-0.144,0.222 -13.532,22.19 -2.31,44.384c0.763,1.481 0.16,3.272 -1.309,4.025c-0.431,0.228 -0.903,0.331 -1.35,0.331" style="fill:#0d2225;fill-rule:nonzero;"/><path d="M302.745,420.101c-6.212,0 -12.309,1.728 -17.631,5.012c-15.787,9.725 -20.719,30.506 -10.987,46.313c9.412,15.24 49.784,34.309 60.646,34.309c0.529,0 0.763,-0.047 0.816,-0.053c-0.019,-0.01 1.178,-0.756 2.397,-4.744c4.572,-14.972 1.956,-51.034 -6.563,-64.844c-6.178,-10.018 -16.89,-15.993 -28.678,-15.993m32.028,94.637c-14.712,0 -57.587,-21.228 -68.293,-38.609c-12.332,-20.01 -6.088,-46.328 13.912,-58.678c6.744,-4.15 14.475,-6.338 22.353,-6.338c14.925,0 28.5,7.569 36.341,20.275c9.987,16.2 12.741,55.028 7.491,72.184c-1.663,5.457 -4.088,8.832 -7.385,10.341c-1.231,0.556 -2.675,0.825 -4.419,0.825" style="fill:#0d2225;fill-rule:nonzero;"/><path d="M649.263,678.079c-6.603,0 -12.531,3.66 -15.468,9.557c-4.257,8.537 -0.778,18.94 7.734,23.178c0.394,0.19 56.003,24.837 116.731,24.837c18.657,0 36.06,-2.319 51.707,-6.912c77.209,-22.647 112.693,-65.241 113.056,-65.682c1.209,-1.503 3.244,-2.043 5.059,-1.362c3.26,1.237 6.347,2.591 9.15,4.056c9.663,4.985 15.96,10.891 18.706,17.535c1.132,2.712 3.929,4.406 6.844,4.1c0.65,-0.075 1.253,-0.213 1.86,-0.479c3.421,-1.4 5.037,-5.312 3.637,-8.709c-3.447,-8.347 -8.612,-14.972 -15.35,-19.728c-1.462,-1.022 -2.178,-2.834 -1.816,-4.563c0.332,-1.756 1.7,-3.118 3.432,-3.506c4.931,-1.072 10.372,-1.619 16.137,-1.619c10.244,0 18.01,1.697 18.091,1.719c0.487,0.103 0.99,0.163 1.481,0.163c3.141,0 5.8,-2.144 6.516,-5.185c0.806,-3.575 -1.447,-7.162 -5.019,-7.981c-0.209,-0.05 -0.525,-0.144 -0.984,-0.303c-1.957,-0.603 -7.872,-2.475 -20.138,-2.475c-6.219,0 -13.162,0.478 -20.653,1.444c-2.019,0.253 -3.963,-0.875 -4.734,-2.766c-0.775,-1.884 -0.172,-4.075 1.456,-5.3c19.931,-14.994 31.778,-14.066 34.444,-13.597c0.468,0.085 0.878,0.119 1.275,0.119c3.184,0 5.931,-2.263 6.531,-5.384c0.35,-1.747 0,-3.547 -1.003,-5.007c-0.978,-1.484 -2.503,-2.497 -4.25,-2.828c0.172,0.025 -0.019,0.025 -0.25,0.025c-1.197,0 -29.863,0.335 -59.575,28.891c-1.241,1.175 -3.044,1.569 -4.657,0.972c-1.603,-0.572 -2.743,-2.038 -2.918,-3.738c-0.178,-1.556 -1.469,-15.269 4.634,-21.997c1.619,-1.797 1.884,-4.487 0.638,-6.528c-0.285,-0.456 -0.619,-0.869 -1.004,-1.222c-2.2,-1.993 -5.8,-1.8 -7.762,0.366c-16.988,18.747 -8.466,38.5 -8.094,39.328c0.825,1.863 0.3,4.025 -1.262,5.306c-2.191,1.81 -54.403,44.294 -93.388,55.725c-16.431,4.819 -33.731,7.269 -51.406,7.269l-0.028,0c-56.131,0 -98.46,-24.019 -101.791,-25.984c-2.387,-1.147 -4.925,-1.735 -7.569,-1.735m108.997,66.569c-62.709,0 -118.234,-24.653 -120.565,-25.697c-13.128,-6.547 -18.425,-22.353 -11.957,-35.306c4.472,-8.994 13.494,-14.566 23.525,-14.566c4.085,0 8.025,0.932 11.719,2.772c0.085,0.041 0.175,0.088 0.266,0.147c0.425,0.247 42.675,24.806 97.403,24.806c16.828,0 33.272,-2.337 48.875,-6.912c32.625,-9.563 76.947,-43.522 87.769,-52.075c-2.341,-7.71 -5.816,-27.291 10.843,-45.678c2.738,-3.032 6.647,-4.75 10.719,-4.75c3.616,0 7.072,1.322 9.744,3.756c1.016,0.919 1.934,2 2.666,3.237c3.281,5.419 2.593,12.507 -1.682,17.204c-0.984,1.096 -1.643,3.006 -2.037,5.2c28.753,-23.61 54.794,-24.36 57.897,-24.36c1.04,0 1.7,0.088 1.968,0.15c4.113,0.794 7.66,3.16 10.01,6.625c2.312,3.463 3.169,7.644 2.356,11.753c-1.425,7.328 -7.881,12.66 -15.362,12.66c-0.963,0 -1.913,-0.097 -2.879,-0.275c-0.412,-0.05 -4.459,-0.422 -11.337,2.4c0.806,-0.013 1.628,-0.028 2.428,-0.028c13.65,0 20.559,2.212 22.838,2.912l0.381,0.122c8.312,1.916 13.603,10.337 11.678,18.741c-1.641,7.181 -7.925,12.168 -15.272,12.168c-1.166,0 -2.331,-0.118 -3.459,-0.387c-0.066,-0.003 -6.997,-1.5 -16.113,-1.5c-1.631,0 -3.225,0.053 -4.787,0.15c4.422,4.737 8.009,10.365 10.693,16.847c3.3,7.984 -0.509,17.159 -8.493,20.459c-1.4,0.581 -2.888,0.95 -4.428,1.113c-6.929,0.709 -13.41,-3.25 -16.032,-9.613c-1.903,-4.562 -6.909,-9.059 -14.528,-12.997c-1.687,-0.859 -3.453,-1.681 -5.325,-2.478c-8.984,9.834 -45.387,45.625 -115.281,66.113c-16.481,4.843 -34.722,7.287 -54.241,7.287" style="fill:#0d2225;fill-rule:nonzero;"/><path d="M847.2,375.881c27.394,-12.025 63.178,11.012 50.11,45.981c-13.072,34.965 -112.078,164.875 -148.269,212.762c-36.203,47.875 -60.928,6.385 -60.928,6.385l-54.781,-96.503l0.709,-3.26c4.616,-22.534 6.444,-44.915 5.15,-65.009l-0.228,-2.863c0,0 74.809,135.057 84.15,131.313c9.347,-3.728 67.728,-77.697 99.49,-125.338c31.747,-47.631 37.844,-58.265 37.844,-58.265l-13.247,-45.203Z" style="fill:#fff;fill-rule:nonzero;"/><path d="M638.097,543.782l53.931,94.997c0.047,0.063 8.844,14.422 22.534,14.422c9.829,-0.013 20.216,-7.169 30.894,-21.309l5.541,-7.282c38.853,-51.368 129.878,-171.637 142.1,-204.331c5.119,-13.709 1.465,-23.419 -2.506,-29.169c-5.997,-8.603 -16.682,-13.953 -27.913,-13.953c-3.434,0 -6.791,0.5 -9.991,1.472l12.625,43.028l-0.971,1.663c-0.241,0.44 -6.516,11.318 -38.01,58.528c-28.828,43.259 -89.897,122.359 -101.55,127.025c-0.662,0.275 -1.353,0.381 -2.081,0.381l-0.009,0c-3.747,0 -9.397,0 -49.825,-67.875c-10.994,-18.447 -21.625,-37.044 -28.8,-49.725c-0.185,16.041 -2.075,33.209 -5.616,50.5l-0.353,1.628Zm76.465,118.394c-18.85,0 -29.843,-18.1 -30.306,-18.863l-55.69,-98.081l1.093,-4.95c4.541,-22.244 6.297,-44.309 5.035,-63.765l-1.713,-23.238l9.916,17.928c32.244,58.185 69.919,120.481 79.737,128.547c11.46,-8.641 64.241,-74.906 96.228,-122.906c24.885,-37.3 34.007,-51.947 36.722,-56.388l-13.812,-47.1l3.606,-1.59c5.45,-2.388 11.266,-3.603 17.3,-3.603c14.128,0 27.641,6.831 35.294,17.825c7.347,10.6 8.612,23.896 3.547,37.437c-12.691,33.934 -100.95,150.559 -143.372,206.6l-5.531,7.306c-12.454,16.491 -25.263,24.841 -38.05,24.841l-0.004,0Z" style="fill:#0d2225;fill-rule:nonzero;"/><path d="M767.568,602.207c0,0 -5.319,-8.547 -18.797,-15.635c0,0 9.659,21.019 9.031,27.135l9.766,-11.5Z" style="fill:#808285;fill-rule:nonzero;"/><path d="M821.724,526.325c-1.746,-1.353 -39.425,-29.288 -91.481,-1.1c1.216,-2.966 3.028,-6.103 5.744,-9.244c3.762,-4.372 4.037,-10.566 1.084,-15.203c-0.656,-1.01 -1.45,-1.95 -2.431,-2.794c-5.331,-4.597 -13.384,-3.991 -17.981,1.347c-18.606,21.587 -14.31,43.822 -11.45,52.703l-2.556,-2.647l-14.541,8.525l19.747,30.472l18.59,-14.516c23.244,-0.6 44.091,23.938 44.394,24.263c3.997,4.794 11.081,5.45 15.894,1.466c4.812,-3.994 5.475,-11.104 1.491,-15.922c-0.475,-0.563 -5.616,-6.638 -13.922,-13.347c10.781,2.544 18.712,6.328 18.931,6.431c6.322,3.1 13.95,0.538 17.084,-5.766c3.125,-6.328 0.535,-13.968 -5.768,-17.112c-1.325,-0.638 -24.669,-11.984 -50.857,-11.25c30.932,-11.231 51.428,3.125 52.628,4.016c5.597,4.196 13.554,3.118 17.81,-2.454c4.262,-5.6 3.206,-13.603 -2.41,-17.868" style="fill:#fff;fill-rule:nonzero;"/><path d="M727.275,569.368c24.638,0 46.072,24.788 46.982,25.844c2.387,2.865 6.803,3.265 9.603,0.95c1.418,-1.181 2.265,-2.816 2.443,-4.628c0.157,-1.813 -0.387,-3.578 -1.54,-4.978c-0.513,-0.61 -5.381,-6.36 -13.281,-12.738c-1.65,-1.325 -2.147,-3.587 -1.207,-5.462c0.916,-1.897 3.016,-2.888 5.047,-2.413c11.553,2.731 19.819,6.75 19.897,6.778c4.063,1.994 9.091,0.235 11.069,-3.728c0.984,-1.978 1.134,-4.225 0.434,-6.312c-0.712,-2.094 -2.206,-3.782 -4.156,-4.75c-0.934,-0.469 -23.606,-11.519 -48.738,-10.8c-2.168,0.05 -4.134,-1.488 -4.553,-3.663c-0.403,-2.159 0.822,-4.309 2.872,-5.062c8.316,-3.025 16.65,-4.544 24.803,-4.544c18.932,0 30.757,8.219 32.035,9.15c1.484,1.119 3.193,1.697 4.99,1.697c2.607,0 5.013,-1.191 6.594,-3.253c2.738,-3.619 2.038,-8.807 -1.562,-11.569c-0.679,-0.519 -16.857,-12.703 -42.385,-12.703c-14.659,0 -29.544,4.031 -44.237,11.99c-1.685,0.894 -3.732,0.669 -5.153,-0.606c-1.407,-1.281 -1.866,-3.281 -1.144,-5.05c1.509,-3.7 3.697,-7.228 6.487,-10.475c2.35,-2.737 2.65,-6.791 0.71,-9.834c-0.419,-0.669 -0.947,-1.266 -1.563,-1.791c-3.362,-2.897 -8.815,-2.475 -11.656,0.853c-17.197,19.944 -13.125,40.475 -10.581,48.385c0.659,1.978 -0.172,4.156 -1.938,5.221c-1.794,1.079 -4.094,0.794 -5.55,-0.703l-0.119,-0.118l-7.434,4.356l14.506,22.409l14.735,-11.494c0.759,-0.6 1.693,-0.925 2.656,-0.946l0.934,-0.013Zm52.266,37.331c-4.7,0 -9.153,-2.068 -12.172,-5.703c-0.153,-0.181 -19.109,-22.115 -39.378,-22.628l-17.378,13.572c-0.988,0.759 -2.272,1.087 -3.5,0.869c-1.25,-0.188 -2.341,-0.935 -3.031,-1.985l-19.747,-30.475c-0.657,-1.034 -0.875,-2.287 -0.597,-3.478c0.284,-1.2 1.053,-2.219 2.097,-2.847l13.303,-7.793c-2.15,-11.738 -2.06,-31.072 14.109,-49.844c3.285,-3.803 8.047,-5.975 13.069,-5.975c4.141,0 8.131,1.487 11.269,4.178c1.253,1.075 2.372,2.347 3.287,3.775c3.166,4.997 3.5,11.241 1.116,16.469c11.525,-4.419 23.125,-6.66 34.634,-6.66c28.053,0 45.9,13.082 47.85,14.575c7.547,5.753 8.997,16.613 3.241,24.169c-3.306,4.306 -8.303,6.781 -13.738,6.781c-0.834,0 -1.668,-0.056 -2.5,-0.181c1.672,1.788 2.95,3.916 3.76,6.294c1.481,4.362 1.156,9.044 -0.894,13.165c-2.938,5.907 -8.856,9.591 -15.459,9.591c-2.404,0 -4.744,-0.497 -6.96,-1.453c2.535,3.203 3.71,7.197 3.319,11.262c-0.375,4.207 -2.394,8 -5.65,10.697c-2.825,2.332 -6.391,3.625 -10.05,3.625" style="fill:#0d2225;fill-rule:nonzero;"/><path d="M976.992,826.302l-8.988,-0.106c0.15,-14.466 -1.875,-28.897 -6.019,-42.916l-33.243,-113.338l8.643,-2.531l33.207,113.335c4.415,14.846 6.578,30.181 6.4,45.556" style="fill:#0d2225;fill-rule:nonzero;"/><path d="M877.377,462.837l38.013,129.627l-8.625,2.53l-38.013,-129.627l8.625,-2.53Z" style="fill:#0d2225;"/><path d="M856.89,424.921l-42.913,-146.328c-11.012,-37.103 -35.815,-67.697 -69.847,-86.153c-34.031,-18.444 -73.203,-22.547 -110.318,-11.541c-35.866,10.656 -65.872,34.378 -84.472,66.809l-7.8,-4.468c19.762,-34.46 51.615,-59.653 89.712,-70.95c39.413,-11.697 81.028,-7.353 117.16,12.243c36.146,19.6 62.496,52.1 74.19,91.51l42.916,146.359l-8.628,2.519Z" style="fill:#0d2225;fill-rule:nonzero;"/><path d="M670.659,1185.44c-283.843,0 -514.762,-230.925 -514.762,-514.775c0,-283.847 230.919,-514.772 514.762,-514.772c283.847,0 514.779,230.925 514.779,514.772c-0.001,283.85 -230.932,514.775 -514.779,514.775m0,-1176.69c-365.559,0 -661.903,296.35 -661.903,661.913c0,365.562 296.344,661.912 661.903,661.912c365.569,0 661.916,-296.35 661.916,-661.912c0,-365.563 -296.347,-661.913 -661.916,-661.913" style="fill:#edc1b8;fill-rule:nonzero;"/><path d="M670.659,164.656c-279.009,0 -506.003,226.997 -506.003,506.016c0,279.019 226.994,506.012 506.003,506.012c279.019,0 506.019,-226.993 506.019,-506.012c0,-279.019 -227,-506.016 -506.019,-506.016m0,1029.54c-288.668,0 -523.518,-234.853 -523.518,-523.528c0,-288.675 234.85,-523.531 523.518,-523.531c288.679,0 523.535,234.856 523.535,523.531c0,288.675 -234.857,523.528 -523.535,523.528m0,-1176.68c-360.143,0 -653.143,293.006 -653.143,653.156c0,360.15 293,653.153 653.143,653.153c360.154,0 653.16,-293.003 653.16,-653.153c0,-360.15 -293.006,-653.156 -653.16,-653.156m0,1323.83c-369.803,0 -670.659,-300.86 -670.659,-670.669c0,-369.81 300.856,-670.672 670.659,-670.672c369.813,0 670.679,300.862 670.679,670.672c0,369.809 -300.866,670.669 -670.679,670.669" style="fill:#0d2225;fill-rule:nonzero;"/><path d="M863.268,1012.6c-16.816,2.847 -32.763,-8.506 -35.603,-25.322c-2.85,-16.818 8.487,-32.771 25.318,-35.612l264.813,-55.309c0,0 41.616,-7.644 54.087,58.35c12.447,65.984 32.354,192.993 32.354,192.993c0,0 72.093,5.975 72.156,16.672c0.078,10.719 -102.031,37.263 -126.944,9.038l-44.822,-206.903l-241.359,46.093Z" style="fill:#0d2225;fill-rule:nonzero;"/><path d="M809.63,1372.37c-1.234,-0.478 -2.572,-0.613 -3.922,-0.6l-194.778,-92.091l74.994,-148.006c6.419,-16.8 -2.003,-35.647 -18.794,-42.059c-16.806,-6.416 -35.625,2.006 -42.056,18.809c0,0 -87.859,150.056 -94.837,171.256c-3.816,11.61 -15.588,38.5 31.25,55.494c35.675,12.922 153.534,62.756 204.228,84.284c-0.191,0.469 -0.385,0.897 -0.55,1.357c-12.028,31.553 -21.297,77.393 -8.775,82.168c12.528,4.772 42.093,-33.334 54.115,-64.859c12.047,-31.547 11.644,-60.981 -0.875,-65.753" style="fill:#0d2225;fill-rule:nonzero;"/><path d="M244.281,682.206c-6.231,-14.432 -9.869,-34.872 -9.869,-34.872c1.125,-0.941 27.654,-23.391 16.813,-62.097c-2.131,-7.566 -10.003,-11.991 -17.575,-9.86c-1.375,0.391 -2.653,0.954 -3.791,1.685c-5.181,3.272 -7.831,9.675 -6.087,15.869c2.834,10.103 -7.303,25.887 -7.303,25.887c-20.81,-58.287 -59.863,-78.394 -62.35,-79.081c-8.491,-2.341 -17.26,2.637 -19.613,11.109c-2.322,8.46 2.575,17.178 10.991,19.591c1.847,0.559 16.228,5.622 31.409,36.053c-36.315,-24.344 -54.175,-25.319 -56.265,-25.825c-8.572,-2.078 -17.194,3.187 -19.241,11.741c-2.072,8.575 3.175,17.143 11.7,19.237c0.447,0.106 23.397,6.016 41.291,20.447c-10.925,1.678 -23.257,6.356 -35.438,16.931c-6.634,5.781 -7.331,15.86 -1.556,22.491c1.047,1.212 2.234,2.209 3.512,3.04c5.803,3.644 13.55,3.269 18.994,-1.475c7.578,-6.596 19.55,-8.762 30.978,-8.94c4.716,-0.044 9.328,0.212 13.506,0.644c0,0 71.022,189.04 260.566,176.131c0,0 -7.591,-29.397 -8.803,-41.5c-62.613,-4.031 -160.044,-43.563 -191.869,-117.206" style="fill:#0d2225;fill-rule:nonzero;"/><path d="M1153.59,1171.26c6.659,6.7 19.997,10.247 38.637,10.247l0.019,0c34.275,0 71.169,-11.544 78.772,-17.137c-7.103,-4.604 -39.11,-9.869 -67.156,-12.185l-3.513,-0.303l-0.547,-3.487c-0.197,-1.269 -20.053,-127.688 -32.356,-192.85c-9.366,-49.604 -35.078,-54.957 -45.703,-54.957c-1.975,0 -3.169,0.191 -3.169,0.191l-264.687,55.291c-7.116,1.2 -13.203,5.021 -17.288,10.771c-4.078,5.729 -5.687,12.732 -4.509,19.707c2.156,12.747 13.094,21.99 26.003,21.99c1.469,0 2.972,-0.122 4.419,-0.365l245.578,-46.897l45.5,209.984Zm38.637,19.228c-22.372,0 -37.897,-4.734 -46.15,-14.097l-0.765,-0.868l-44.163,-203.763l-237.044,45.263c-2.037,0.362 -4.034,0.503 -6.012,0.503c-17.322,0 -31.988,-12.403 -34.878,-29.494c-1.566,-9.322 0.594,-18.706 6.078,-26.403c5.462,-7.709 13.616,-12.828 22.931,-14.394l264.641,-55.281c0.29,-0.053 2.069,-0.356 4.878,-0.356c39.709,0 51.794,47.675 54.553,62.275c11.166,59.222 28.547,168.809 31.828,189.656c6.206,0.591 19.594,1.975 32.869,4.056c33.034,5.191 39.847,10.466 39.894,16.785c0,1.912 -0.822,3.728 -2.522,5.431c-8.981,9.04 -52.347,20.687 -86.119,20.687l-0.019,0Z" style="fill:#0d2225;fill-rule:nonzero;"/><path d="M172.335,659.227c4.075,0 8.293,0.244 12.553,0.678c1.859,0.194 3.431,1.416 4.087,3.144c0.657,1.738 67.357,173.591 237.591,173.603l0.006,0c4.01,0 8.091,-0.109 12.178,-0.29c-1.99,-8.057 -5.465,-22.666 -6.947,-32.366c-61.871,-5.388 -159.756,-45.169 -192.018,-119.834c-6.388,-14.804 -10.053,-35.119 -10.207,-35.985c-0.3,-1.728 0.338,-3.494 1.697,-4.625c1.032,-0.862 25.188,-21.415 15.216,-56.99c-1.344,-4.844 -6.619,-7.835 -11.528,-6.46c-0.881,0.231 -1.716,0.61 -2.488,1.1c-3.443,2.194 -5.087,6.472 -3.975,10.41c3.335,11.856 -6.743,28.053 -7.906,29.846c-1,1.591 -2.825,2.444 -4.687,2.244c-1.866,-0.215 -3.441,-1.469 -4.066,-3.231c-20.409,-57.244 -58.878,-75.928 -59.259,-76.078c-0.741,-0.2 -1.722,-0.328 -2.71,-0.328c-4.934,0 -9.325,3.328 -10.634,8.112c-1.616,5.806 1.803,11.9 7.597,13.544c3.053,0.9 18.7,6.984 34.465,38.584c0.982,1.982 0.516,4.385 -1.153,5.869c-1.681,1.463 -4.128,1.631 -5.978,0.381c-14.681,-9.837 -35.862,-22.137 -53.366,-24.878c-0.615,-0.09 -1.056,-0.178 -1.312,-0.24c-5.909,-1.444 -11.925,2.321 -13.334,8.131c-1.419,5.89 2.215,11.865 8.112,13.319c1.047,0.259 24.638,6.434 43.2,21.393c1.519,1.222 2.172,3.207 1.666,5.107c-0.513,1.871 -2.078,3.278 -4.003,3.562c-11.919,1.816 -23,7.128 -32.957,15.778c-4.593,3.991 -5.072,10.981 -1.078,15.566c0.716,0.812 1.541,1.522 2.438,2.081c3.99,2.525 9.547,2.134 13.14,-1.006c7.469,-6.497 18.947,-9.897 34.132,-10.131l1.528,-0.01Zm254.237,187.216l-0.006,0c-92.634,0 -154.822,-48.969 -190.697,-90.047c-33.537,-38.409 -50.541,-76.35 -54.928,-87.003c-2.931,-0.231 -5.816,-0.353 -8.606,-0.353l-1.388,0.022c-12.609,0.178 -22.231,2.846 -27.831,7.715c-6.784,5.903 -17.25,6.694 -24.819,1.894c-1.703,-1.053 -3.265,-2.4 -4.6,-3.934c-7.547,-8.669 -6.644,-21.85 2.041,-29.422c8.294,-7.21 17.328,-12.403 26.956,-15.494c-14.847,-9.25 -30.053,-13.228 -30.806,-13.409c-11.085,-2.738 -17.944,-13.994 -15.266,-25.154c2.269,-9.384 10.603,-15.965 20.256,-15.965c1.644,0 3.297,0.222 4.913,0.594l0.534,0.096c12.941,2.019 27.353,8.554 40.125,15.772c-10.115,-13.965 -17.947,-16.49 -18.362,-16.615c-10.894,-3.116 -17.344,-14.603 -14.316,-25.582c2.497,-9.025 10.756,-15.303 20.1,-15.303c1.869,0 3.738,0.244 5.553,0.753c0.394,0.097 38.335,16.66 61.628,71.785c1.772,-4.525 2.888,-9.294 1.994,-12.522c-2.269,-8.069 1.091,-16.863 8.185,-21.356c1.6,-1.013 3.309,-1.778 5.109,-2.275c1.662,-0.457 3.422,-0.707 5.156,-0.707c8.547,0 16.131,5.754 18.441,13.975c9.931,35.382 -9.4,58.407 -16.197,65.169c1.194,5.856 4.397,20.403 9.05,31.178c31.328,72.522 128.606,110.463 187.675,114.253c2.394,0.147 4.322,2.025 4.562,4.407c1.163,11.622 8.61,40.484 8.679,40.778c0.371,1.419 0.084,2.9 -0.766,4.103c-0.85,1.169 -2.191,1.912 -3.647,2.019c-6.269,0.415 -12.572,0.628 -18.722,0.628" style="fill:#0d2225;fill-rule:nonzero;"/><path d="M655.51,1092.19c-11.465,0 -21.887,7.225 -25.984,17.907l-0.341,0.709c-30.303,51.744 -89.034,153.956 -94.428,170.356l-0.6,1.791c-4.222,12.39 -11.284,33.131 28.95,47.719c35.838,13 154.925,63.34 204.463,84.384l4.228,1.809l-2.197,5.641c-6.238,16.312 -11.209,35.037 -13.331,50.081c-2.766,19.653 0.375,25.378 1.806,25.919c0.178,0.069 0.4,0.094 0.644,0.094c9.759,0 35.884,-32.144 47.347,-62.188c12.44,-32.619 9.459,-56.7 1.862,-59.609c-0.484,-0.175 -1.128,-0.269 -1.906,-0.269l-1.125,0.019l-1.235,-0.478l-199.184,-94.185l77.084,-152.162c2.563,-6.872 2.322,-14.341 -0.675,-21.053c-3.025,-6.772 -8.515,-11.95 -15.45,-14.613c-3.218,-1.237 -6.543,-1.872 -9.928,-1.872m103.21,415.95c-1.419,0 -2.766,-0.256 -4.022,-0.725c-8.263,-3.131 -10.831,-14.987 -7.844,-36.162c2.088,-14.794 6.809,-32.985 12.753,-49.225c-51.69,-21.931 -165.1,-69.835 -199.744,-82.397c-49.003,-17.772 -38.993,-47.194 -34.725,-59.759l0.585,-1.691c6.956,-21.144 89.375,-162.122 95.065,-171.844c5.572,-14.175 19.485,-23.647 34.722,-23.647c4.55,0 9.035,0.835 13.313,2.475c9.312,3.557 16.687,10.528 20.747,19.619c4.072,9.125 4.359,19.247 0.8,28.563l-0.2,0.453l-72.788,143.656l189.403,89.569c1.66,0.075 3.147,0.359 4.519,0.893c17.634,6.732 15.022,42.05 3.647,71.879c-10.369,27.203 -38.084,68.343 -56.231,68.343" style="fill:#0d2225;fill-rule:nonzero;"/><path d="M261.293,192.467l52.5,-39.872l11.338,14.925l-37.491,28.469l26.619,35.225l37.572,-28.535l11.337,14.922l-52.503,39.875l-49.372,-65.009Z" style="fill:#f15722;fill-rule:nonzero;"/><path d="M355.262,148.474l13.984,24.766l24.762,-13.984l-13.981,-24.763l-24.765,13.981Zm-25.535,-7.103l57.403,-32.415l40.138,71.081l-16.319,9.219l-7.725,-13.679l-24.762,13.982l7.725,13.678l-16.322,9.219l-40.138,-71.085Z" style="fill:#f15722;fill-rule:nonzero;"/><path d="M428.772,110.494l4.694,11.831l26.437,-10.488l-4.696,-11.834l-26.435,10.491Zm-24.334,-10.51l61.275,-24.315l18.503,46.625l-43.853,17.403l11.606,29.253l-17.419,6.909l-30.112,-75.875Z" style="fill:#f15722;fill-rule:nonzero;"/><path d="M484.273,69.062l64.025,-15.716l4.469,18.203l-22.569,5.541l14.991,61.078l-18.15,4.453l-14.991,-61.078l-23.306,5.722l-4.469,-18.203Z" style="fill:#f15722;fill-rule:nonzero;"/><path d="M588.304,66.034l2.95,28.284l28.285,-2.95l-2.947,-28.284l-28.288,2.95Zm-20.581,-16.697l65.566,-6.837l8.465,81.19l-18.64,1.944l-1.635,-15.622l-28.284,2.947l1.634,15.628l-18.643,1.941l-8.463,-81.191Z" style="fill:#f15722;fill-rule:nonzero;"/><path d="M670.034,123.73l-18.733,0.306l-1.336,-81.731l18.733,-0.306l1.336,81.731Z" style="fill:#f15722;"/><path d="M687.239,41.138l18.678,1.6l-0.703,8.203l25.891,30.972l3.144,-36.753l18.675,1.594l-6.95,81.34l-18.675,-1.597l1.331,-15.653l-25.891,-30.975l-3.781,44.203l-18.672,-1.596l6.953,-81.338Z" style="fill:#f15722;fill-rule:nonzero;"/><path d="M795.665,53.391l63.61,16.881l-4.7,18.147l-45.6,-12.103l-3.266,12.3l45.603,12.103l-12.869,48.487l-63.715,-16.912l4.806,-18.116l45.588,12.156l3.281,-12.359l-45.606,-12.1l12.868,-48.484Z" style="fill:#f15722;fill-rule:nonzero;"/><path d="M878.087,76.007l17.291,7.238l-24.285,58.134l26.229,10.985l24.334,-58.113l17.294,7.238l-31.575,75.403l-60.86,-25.488l31.572,-75.397Z" style="fill:#f15722;fill-rule:nonzero;"/><path d="M956.566,109.622l10.497,6.191l7.531,28.516l28.457,-7.313l10.309,6.078l-41.444,70.328l-16.147,-9.512l22.057,-37.428l-16.394,4.234l-3.875,-2.281l-4.235,-16.394l-22.056,37.428l-16.15,-9.518l41.45,-70.329Z" style="fill:#f15722;fill-rule:nonzero;"/><path d="M1029.83,153.604l9.571,7.55l3.61,29.272l29.178,-3.412l9.403,7.415l-50.553,64.097l-14.716,-11.606l26.9,-34.113l-16.809,1.988l-3.531,-2.788l-1.988,-16.809l-26.903,34.109l-14.716,-11.606l50.554,-64.097Z" style="fill:#f15722;fill-rule:nonzero;"/><path d="M1096.67,207.234l45.797,47.425l-13.487,13.016l-32.769,-33.938l-9.159,8.841l21.862,22.641l-13.444,12.978l-21.337,-22.091l-9.231,8.763l32.325,33.475l-13.491,13.018l-45.791,-47.425l58.725,-56.703Z" style="fill:#f15722;fill-rule:nonzero;"/><path d="M1151.51,295.387l-10.259,7.535l16.825,22.922l10.265,-7.528l-16.831,-22.929Zm4.022,-26.2l39.003,53.15l-40.44,29.679l-11.95,-16.291l-4.379,28.278l-9.043,6.631l-11.088,-15.109l6.278,-39.884l-23.103,16.956l-11.09,-15.11l65.812,-48.3Z" style="fill:#f15722;fill-rule:nonzero;"/><path d="M1217.67,358.855l29.225,58.972l-16.75,8.419l-20.946,-42.275l-11.404,5.653l20.95,42.275l-44.946,22.272l-29.272,-59.069l16.79,-8.325l20.903,42.3l11.457,-5.675l-20.95,-42.275l44.943,-22.272Z" style="fill:#f15722;fill-rule:nonzero;"/><path d="M1243.17,459.508l-26.972,9.031l9.041,26.966l26.962,-9.034l-9.031,-26.963Zm11.816,-23.728l20.94,62.506l-77.403,25.935l-5.95,-17.772l14.891,-4.991l-9.031,-26.966l-14.9,4.991l-5.954,-17.775l77.407,-25.928Z" style="fill:#f15722;fill-rule:nonzero;"/><path d="M1281.47,517.046l3.466,18.419l-61.894,11.725l5.26,27.943l61.915,-11.668l3.475,18.422l-80.331,15.137l-12.222,-64.837l80.331,-15.141Z" style="fill:#f15722;fill-rule:nonzero;"/><path d="M1296.63,601.563l3.29,65.734l-18.718,1.044l-2.357,-47.122l-12.715,0.631l2.356,47.128l-50.094,2.504l-3.3,-65.844l18.719,-0.935l2.309,47.129l12.766,-0.644l-2.356,-47.122l50.1,-2.503Z" style="fill:#f15722;fill-rule:nonzero;"/><path d="M1279.95,703.817l-28.335,-2.4l-2.403,28.34l28.335,2.4l2.403,-28.34Zm20.256,-17.094l-5.563,65.687l-81.34,-6.887l1.578,-18.675l15.653,1.325l2.4,-28.335l-15.653,-1.328l1.584,-18.675l81.341,6.888Z" style="fill:#f15722;fill-rule:nonzero;"/><path d="M1292.24,772.13l-14.463,64.319l-18.284,-4.113l10.347,-46.034l-43.072,-9.681l-6.237,27.746l30.65,6.891l-4.107,18.285l-48.94,-10.997l14.462,-64.319l79.644,17.903Z" style="fill:#f15722;fill-rule:nonzero;"/><path d="M1272.79,855.342l-23.107,61.744l-17.556,-6.569l16.541,-44.19l-11.919,-4.46l-11.034,29.475l-17.504,-6.55l10.763,-28.768l-11.878,-4.563l-16.313,43.581l-17.55,-6.575l23.1,-61.74l76.457,28.615Z" style="fill:#f15722;fill-rule:nonzero;"/><path d="M889.55,811.748c-7.432,-14.581 -1.644,-32.441 12.953,-39.894c14.572,-7.45 32.44,-1.653 39.881,12.935l50.181,69.103c0,0 28.013,32.625 0,64.387l-118.584,149.735c0,0 37.341,24.562 29.866,34.993c-7.469,10.441 -52.294,3.644 -80.319,-34.993l123.287,-165.625l-57.265,-90.641Z" style="fill:#0d2225;fill-rule:nonzero;"/><path d="M889.55,811.748c-7.432,-14.581 -1.644,-32.441 12.953,-39.894c14.572,-7.45 32.44,-1.653 39.881,12.935l50.181,69.103c0,0 28.013,32.625 0,64.387l-118.584,149.735c0,0 37.341,24.562 29.866,34.993c-7.469,10.441 -52.294,3.644 -80.319,-34.993l123.287,-165.625l-57.265,-90.641Z" style="fill:#fff;fill-rule:nonzero;"/><path d="M829.14,1068.01c18.625,23.966 44.644,34.91 61.453,34.91c6.153,0 8.935,-1.585 9.603,-2.516c0.057,-0.097 0.225,-0.313 0.094,-1.078c-1.256,-6.756 -17.587,-20.178 -28.791,-27.553l-4.115,-2.685l121.662,-153.603c25.169,-28.547 1.138,-57.453 0.1,-58.69l-0.222,-0.275l-50.547,-69.694c-4.315,-8.463 -12.909,-13.725 -22.428,-13.725c-4.006,0 -7.84,0.928 -11.412,2.753c-12.297,6.294 -17.25,21.356 -11.069,33.681l58.797,93.069l-123.125,165.406Zm61.453,43.9c-19.625,0 -50.144,-12.906 -70.7,-41.253l-1.931,-2.675l123.397,-165.787l-55.828,-88.388c-8.541,-16.775 -1.86,-37.378 14.912,-45.959c4.788,-2.441 10.166,-3.741 15.506,-3.741c12.782,0 24.354,7.009 30.275,18.322l49.907,68.719c2.29,2.8 28.95,37.078 -0.185,70.103l-115.456,145.778c8.834,6.216 26.641,19.916 28.641,30.659c0.553,2.957 -0.022,5.707 -1.625,7.963c-2.953,4.09 -8.775,6.259 -16.913,6.259" style="fill:#0d2225;fill-rule:nonzero;"/><path d="M889.55,811.748c-7.432,-14.581 -1.644,-32.441 12.953,-39.894c14.572,-7.45 32.44,-1.653 39.881,12.935l50.181,69.103c0,0 28.013,32.625 0,64.387l-118.584,149.735c0,0 37.341,24.562 29.866,34.993c-7.469,10.441 -52.294,3.644 -80.319,-34.993l123.287,-165.625l-57.265,-90.641Z" style="fill:#fff;fill-rule:nonzero;"/><path d="M829.14,1068.01c18.625,23.966 44.644,34.91 61.453,34.91c6.153,0 8.935,-1.585 9.603,-2.516c0.057,-0.097 0.225,-0.313 0.094,-1.078c-1.256,-6.756 -17.587,-20.178 -28.791,-27.553l-4.115,-2.685l121.662,-153.603c25.169,-28.547 1.138,-57.453 0.1,-58.69l-0.222,-0.275l-50.547,-69.694c-4.315,-8.463 -12.909,-13.725 -22.428,-13.725c-4.006,0 -7.84,0.928 -11.412,2.753c-12.297,6.294 -17.25,21.356 -11.069,33.681l58.797,93.069l-123.125,165.406Zm61.453,43.9c-19.625,0 -50.144,-12.906 -70.7,-41.253l-1.931,-2.675l123.397,-165.787l-55.828,-88.388c-8.541,-16.775 -1.86,-37.378 14.912,-45.959c4.788,-2.441 10.166,-3.741 15.506,-3.741c12.782,0 24.354,7.009 30.275,18.322l49.907,68.719c2.29,2.8 28.95,37.078 -0.185,70.103l-115.456,145.778c8.834,6.216 26.641,19.916 28.641,30.659c0.553,2.957 -0.022,5.707 -1.625,7.963c-2.953,4.09 -8.775,6.259 -16.913,6.259" style="fill:#0d2225;fill-rule:nonzero;"/><path d="M667.211,115.155c-7.725,-2.9 -16.341,1.019 -19.238,8.741l-10.769,28.734c-9.925,-16.759 -23.459,-36.222 -37.715,-46.859c-6.6,-4.931 -15.969,-3.578 -20.9,3.037c-4.935,6.625 -3.569,15.982 3.034,20.922c8.909,6.65 18.559,19.857 26.747,33.06c-13.313,-5.591 -24.037,-11.741 -26.647,-16.569c-3.925,-7.259 -12.99,-9.969 -20.24,-6.038c-7.272,3.919 -9.972,12.994 -6.05,20.254c7.181,13.278 25.506,23.596 43.318,30.912c11.269,4.631 33.785,-14.753 33.785,-14.753l29.725,-5.659l13.703,-36.554c2.894,-7.718 -1.019,-16.334 -8.753,-19.228" style="fill:#be4726;fill-rule:nonzero;"/><path d="M568.57,142.881c-1.74,0 -3.406,0.421 -4.956,1.256c-2.459,1.334 -4.247,3.534 -5.037,6.209c-0.81,2.675 -0.516,5.491 0.815,7.956c5.288,9.775 18.738,19.435 38.944,28.004c14.697,-8.9 32.219,-13.829 32.987,-14.044c0.122,-0.028 0.25,-0.056 0.372,-0.088l27.25,-5.181l12.803,-34.184c0.994,-2.616 0.885,-5.45 -0.271,-7.988c-1.16,-2.55 -3.229,-4.475 -5.838,-5.462c-1.181,-0.447 -2.419,-0.666 -3.672,-0.666c-4.325,0 -8.265,2.731 -9.769,6.784l-10.771,28.725c-0.613,1.625 -2.091,2.747 -3.825,2.9c-1.722,0.166 -3.375,-0.69 -4.26,-2.181c-12.728,-21.45 -25.353,-37.212 -36.537,-45.547c-1.807,-1.356 -3.963,-2.065 -6.232,-2.065c-3.337,0 -6.396,1.528 -8.378,4.193c-1.675,2.238 -2.368,4.988 -1.962,7.754c0.394,2.753 1.837,5.19 4.084,6.865c8.172,6.088 17.538,17.631 27.878,34.303c1.016,1.663 0.863,3.81 -0.418,5.294c-1.272,1.491 -3.36,1.975 -5.157,1.228c-16.156,-6.806 -25.862,-13.059 -28.85,-18.587c-1.822,-3.382 -5.362,-5.478 -9.2,-5.478m30.182,52.962c-0.579,0 -1.157,-0.109 -1.707,-0.334c-23.665,-9.716 -38.997,-20.797 -45.565,-32.935c-2.466,-4.572 -3.007,-9.825 -1.532,-14.793c1.494,-4.975 4.829,-9.082 9.394,-11.554c2.822,-1.534 6.013,-2.34 9.228,-2.34c7.141,0 13.707,3.906 17.116,10.2c0.853,1.572 3.922,4.215 9.872,7.565c-6.128,-8.468 -11.763,-14.7 -16.613,-18.321c-4.172,-3.11 -6.868,-7.644 -7.618,-12.782c-0.75,-5.14 0.556,-10.256 3.653,-14.425c3.653,-4.887 9.478,-7.812 15.593,-7.812c4.21,0 8.222,1.328 11.616,3.862c10.822,8.066 22.25,21.585 34.047,40.247l7.528,-20.103c2.828,-7.544 10.144,-12.616 18.203,-12.616c2.331,0 4.644,0.416 6.825,1.241c4.856,1.816 8.719,5.425 10.872,10.159c2.15,4.722 2.334,9.997 0.509,14.866l-13.696,36.553c-0.554,1.463 -1.822,2.544 -3.379,2.835l-29.525,5.618c-1.89,0.541 -19.212,5.666 -32.387,14.144c-0.738,0.484 -1.588,0.725 -2.434,0.725" style="fill:#0d2225;fill-rule:nonzero;"/><path d="M52.568,675.734l-0.021,-5.062c0,-169.96 67.812,-328.485 190.946,-446.369l12.11,12.65c-119.644,114.553 -185.538,268.581 -185.538,433.719l0.019,4.915l-17.516,0.147Z" style="fill:#0d2225;fill-rule:nonzero;"/><path d="M670.659,1288.79c-44.084,0 -88.118,-4.694 -130.878,-13.95l3.707,-17.116c41.543,8.994 84.331,13.547 127.171,13.547c114.85,0 226.553,-32.669 323.047,-94.472c93.944,-60.175 169.26,-144.915 217.797,-245.062l15.763,7.64c-49.947,103.057 -127.447,190.253 -224.113,252.175c-99.315,63.61 -214.29,97.238 -332.494,97.238" style="fill:#0d2225;fill-rule:nonzero;"/><path d="M670.659,1246.75c-40.356,0 -80.678,-4.219 -119.85,-12.544l3.641,-17.128c37.978,8.069 77.078,12.156 116.209,12.156c106.144,0 209.482,-30.034 298.838,-86.844c86.987,-55.303 157.003,-133.287 202.481,-225.522l15.716,7.747c-46.906,95.116 -119.103,175.532 -208.794,232.557c-92.169,58.606 -198.762,89.578 -308.241,89.578" style="fill:#0d2225;fill-rule:nonzero;"/><path d="M112.107,670.671l-17.519,0c0,-157.375 62.506,-304.45 176.003,-414.131l12.172,12.597c-110.047,106.35 -170.656,248.953 -170.656,401.534" style="fill:#0d2225;fill-rule:nonzero;"/><path d="M119.249,695.097l1.666,12.238l-17.963,23.884l23.669,18.047l1.638,12.019l-81.956,11.156l-2.563,-18.815l43.616,-5.938l-13.653,-10.384l-0.616,-4.513l10.384,-13.656l-43.618,5.937l-2.563,-18.818l81.959,-11.157Z" style="fill:#59252e;fill-rule:nonzero;"/><path d="M129.657,771.267l3.306,11.9l-14.565,26.09l25.897,14.678l3.25,11.688l-79.694,22.15l-5.084,-18.3l42.409,-11.785l-14.934,-8.44l-1.219,-4.388l8.437,-14.934l-42.412,11.784l-5.085,-18.293l79.694,-22.15Z" style="fill:#59252e;fill-rule:nonzero;"/><path d="M140.416,870.406l-26.462,11.406l11.409,26.463l26.459,-11.41l-11.406,-26.459Zm9.919,-24.956l26.447,61.337l-75.953,32.747l-7.522,-17.437l14.619,-6.304l-11.41,-26.459l-14.615,6.3l-7.519,-17.437l75.953,-32.747Z" style="fill:#59252e;fill-rule:nonzero;"/><path d="M190.958,934.813l10.4,15.888l-53.409,34.959l26.212,40.044l-15.89,10.4l-36.613,-55.935l69.3,-45.356Z" style="fill:#59252e;fill-rule:nonzero;"/><path d="M233.249,999.297l43.744,50.481l-14.353,12.438l-31.306,-36.132l-9.747,8.447l20.881,24.1l-14.309,12.4l-20.382,-23.515l-9.818,8.359l30.872,35.634l-14.35,12.435l-43.741,-50.482l62.509,-54.165Z" style="fill:#59252e;fill-rule:nonzero;"/><path d="M285.379,1084.23l-19.065,21.61l21.606,19.065l19.066,-21.609l-21.607,-19.066Zm-1.678,-26.803l50.091,44.191l-54.725,62.025l-14.241,-12.563l10.531,-11.937l-21.606,-19.063l-10.531,11.935l-14.241,-12.563l54.722,-62.025Z" style="fill:#59252e;fill-rule:nonzero;"/><path d="M341.561,1108.38l55.55,37.093l-10.544,15.794l-39.756,-26.547l-24.844,37.2l23.965,16.003l17.679,-26.478l15.793,10.547l-28.225,42.269l-55.55,-37.091l45.932,-68.79Z" style="fill:#59252e;fill-rule:nonzero;"/><path d="M405.332,1150.92l17.066,8.328l-27.944,57.391l25.897,12.638l27.993,-57.366l17.069,8.328l-36.322,74.434l-60.081,-29.318l36.322,-74.435Z" style="fill:#59252e;fill-rule:nonzero;"/><path d="M474.607,1184.66l63.443,20.893l-5.94,18.038l-45.407,-14.953l-4.034,12.25l30.288,9.975l-5.922,17.984l-29.56,-9.731l-4.137,12.216l44.781,14.746l-5.941,18.038l-63.443,-20.894l25.872,-78.562Z" style="fill:#59252e;fill-rule:nonzero;"/></g></svg>