<?xml version="1.0" encoding="UTF-8" standalone="no"?>
<!DOCTYPE svg PUBLIC "-//W3C//DTD SVG 1.1//EN" "http://www.w3.org/Graphics/SVG/1.1/DTD/svg11.dtd">
<svg width="100%" height="100%" viewBox="0 0 86 96" version="1.1" xmlns="http://www.w3.org/2000/svg" xmlns:xlink="http://www.w3.org/1999/xlink" xml:space="preserve" xmlns:serif="http://www.serif.com/" style="fill-rule:evenodd;clip-rule:evenodd;stroke-linejoin:round;stroke-miterlimit:2;">
    <g id="Layer-1" serif:id="Layer 1" transform="matrix(0.19892,0,0,0.19892,-18.2683,-29.0424)">
        <g transform="matrix(1,0,0,1,356.744,194.997)">
            <path d="M0,262.681C-20.623,262.681 -39.649,249.23 -45.818,228.454L-54.069,200.326C-54.069,200.326 -47.097,182.284 -55.023,157.667C-62.947,133.048 -80.646,109.689 -80.646,109.689L-93.18,66.957C-100.69,41.64 -86.259,15.029 -60.941,7.514C-35.627,0 -9.014,14.431 -1.504,39.751L45.86,201.248C53.373,226.561 38.938,253.175 13.626,260.691C9.087,262.036 4.503,262.681 0,262.681" style="fill:rgb(241,87,34);fill-rule:nonzero;"/>
        </g>
        <g transform="matrix(1,0,0,1,230.883,250.339)">
            <path d="M0,120.883C-2.943,115.739 -6.996,112.251 -6.996,112.251C-24.21,99.737 -37.3,76.301 -39.275,56.702C-39.746,51.993 -39.592,47.353 -38.878,42.883C-38.159,38.402 -36.877,34.086 -35.099,30.024C-27.628,12.94 -11.411,0.285 8.457,-1.716C37.771,-4.671 63.923,16.699 66.878,46.012C68.44,61.518 63.813,81.914 54.624,97.053L46.251,112.705L24.731,122.865L1.911,125.554L0,120.883Z" style="fill:rgb(113,68,72);fill-rule:nonzero;"/>
        </g>
        <g transform="matrix(1,0,0,1,233.626,502.275)">
            <path d="M0,-116.972C0,-116.972 -5.082,-95.602 9.833,-69.591C42.791,-12.112 44.102,8.996 84.753,22.742C95.462,26.877 114.561,27.298 124.994,25.183C138.569,22.439 150.849,13.851 157.819,0.655C170.163,-22.692 161.246,-51.621 137.896,-63.959C117.115,-74.943 85.413,-106.728 63.33,-139.305C61.994,-141.278 59.59,-142.298 58.329,-144.27" style="fill:rgb(89,37,46);fill-rule:nonzero;"/>
        </g>
        <g transform="matrix(-0.524849,-0.851195,-0.851195,0.524849,177.685,289.984)">
            <path d="M-7.647,-22.288C-14.388,-22.288 -29.216,-13.961 -28.718,-10.078C-28.351,-7.198 -14.384,2.126 -7.647,2.125C-0.902,2.126 4.562,-3.34 4.562,-10.083C4.561,-16.824 -0.906,-22.288 -7.647,-22.288" style="fill:white;fill-rule:nonzero;"/>
        </g>
        <g transform="matrix(1,0,0,1,271.96,238.038)">
            <path d="M0,-0.892C-1.998,-1.507 -4.101,-1.605 -6.195,-1.372C-4.478,-3.076 -3.023,-4.125 -2.132,-4.148C0.483,-3.746 2.917,-5.538 3.319,-8.147C3.724,-10.757 1.931,-13.198 -0.68,-13.602C-6.031,-14.42 -11.468,-10.153 -15.965,-4.943C-16.368,-7.177 -18.32,-8.875 -20.671,-8.875C-23.314,-8.875 -25.454,-6.734 -25.454,-4.095L-25.454,10.351L-16.997,13.528C-16.24,12.971 -15.395,12.404 -14.497,11.858C-10.563,9.446 -5.639,7.378 -2.813,8.248C-0.287,9.023 2.392,7.608 3.164,5.083C3.94,2.561 2.523,-0.112 0,-0.892" style="fill:rgb(89,37,46);fill-rule:nonzero;"/>
        </g>
        <g transform="matrix(-0.194092,0.980983,0.980983,0.194092,247.446,268.703)">
            <path d="M8.258,-19.108C15.002,-19.104 29.826,-10.776 29.334,-6.896C28.957,-4.014 15.002,5.311 8.258,5.308C1.518,5.309 -3.948,-0.152 -3.948,-6.894C-3.947,-13.639 1.515,-19.102 8.258,-19.108" style="fill:white;fill-rule:nonzero;"/>
        </g>
        <g transform="matrix(1,0,0,1,246.771,497.528)">
            <path d="M0,-59.122C-11.531,-44.416 -7.893,-26.008 7.349,-23.609C17.208,-20.62 73.989,-17.637 73.989,-17.637C73.989,-17.637 66.766,-1.618 70.542,0C83.251,-0.007 87.507,-28.094 87.507,-28.094C87.507,-28.094 23.186,-31.684 13.004,-35.413C2.824,-39.143 7.317,-46.011 7.317,-46.011L0,-59.122Z" style="fill:rgb(13,34,37);fill-rule:nonzero;"/>
        </g>
        <g transform="matrix(1,0,0,1,411.063,374.532)">
            <path d="M0,-25.888C-0.463,-25.992 -4.142,-27.583 -13.862,-26.337C-7.775,-30.92 -4.38,-30.501 -3.955,-30.428C-2.031,-30.061 -0.167,-31.327 0.208,-33.252C0.587,-35.187 -0.675,-37.068 -2.608,-37.449C-3.186,-37.553 -13.027,-37.433 -23.03,-27.821C-23.03,-27.821 -23.481,-32.005 -21.909,-33.742C-20.936,-34.807 -20.828,-36.364 -21.542,-37.535C-21.695,-37.796 -21.89,-38.039 -22.13,-38.253C-23.436,-39.438 -25.457,-39.336 -26.644,-38.028C-32.692,-31.353 -29.614,-24.195 -29.485,-23.898C-29.485,-23.898 -46.524,-9.952 -58.855,-6.33C-84.273,1.124 -106.804,-12.201 -106.804,-12.201C-110.248,-13.922 -114.43,-12.523 -116.151,-9.073C-117.865,-5.629 -116.467,-1.447 -113.021,0.271C-113.021,0.271 -83.495,13.55 -58.078,6.094C-32.657,-1.359 -21.194,-15.391 -21.194,-15.391C-20.315,-15.063 -19.362,-14.656 -18.422,-14.165C-16.147,-12.99 -13.958,-11.358 -13.099,-9.282C-12.48,-7.784 -10.969,-6.935 -9.436,-7.085C-9.106,-7.122 -8.765,-7.204 -8.431,-7.343C-6.607,-8.094 -5.743,-10.182 -6.493,-12.005C-7.882,-15.347 -9.883,-17.519 -11.909,-18.949C-6.876,-20.052 -1.681,-18.938 -1.579,-18.92C0.343,-18.487 2.253,-19.682 2.69,-21.604C3.13,-23.527 1.932,-25.445 0,-25.888" style="fill:rgb(13,34,37);fill-rule:nonzero;"/>
        </g>
        <g transform="matrix(0.264471,0.964394,0.964394,-0.264471,322.702,339.38)">
            <path d="M-18.576,-24.878C-18.576,-24.878 24.369,-22.094 32.476,-24.878" style="fill:white;fill-rule:nonzero;"/>
        </g>
        <g transform="matrix(-0.998101,-0.0615983,-0.0615983,0.998101,294.537,327.136)">
            <path d="M-17.265,49.265L-14.391,49.265C-14.4,42.712 -3.663,15.158 2.011,1.504L-0.643,0.399C-1.322,2.033 -17.276,40.507 -17.265,49.265" style="fill:rgb(13,34,37);fill-rule:nonzero;"/>
        </g>
        <g transform="matrix(0,-1,-1,0,186.893,285.779)">
            <path d="M-4.235,-4.24C-6.578,-4.24 -8.476,-2.346 -8.476,-0.002C-8.476,2.342 -6.578,4.235 -4.235,4.235C-1.896,4.235 0.001,2.342 0.001,-0.002C0.001,-2.346 -1.896,-4.24 -4.235,-4.24" style="fill:rgb(13,34,37);fill-rule:nonzero;"/>
        </g>
        <g transform="matrix(1,0,0,1,202.224,305.283)">
            <path d="M0,8.563C-2.755,8.563 -5.444,4.468 -5.791,3.923C-6.073,3.474 -5.941,2.89 -5.495,2.604C-5.05,2.321 -4.458,2.45 -4.172,2.896C-3.248,4.348 -0.809,7.275 0.432,6.516C2.23,5.414 3.939,1.959 4.445,0.72C4.65,0.233 5.21,0 5.699,0.197C6.187,0.399 6.423,0.956 6.226,1.449C6.142,1.651 4.137,6.5 1.429,8.15C0.959,8.441 0.476,8.563 0,8.563" style="fill:rgb(13,34,37);fill-rule:nonzero;"/>
        </g>
        <g transform="matrix(0.350037,0.936736,0.936736,-0.350037,240.118,270.2)">
            <path d="M2.27,-1.572C3.607,-1.577 4.689,-0.491 4.69,0.844C4.691,2.185 3.609,3.268 2.27,3.27C0.934,3.269 -0.155,2.187 -0.153,0.85C-0.152,-0.489 0.932,-1.571 2.27,-1.572" style="fill:rgb(13,34,37);fill-rule:nonzero;"/>
        </g>
        <g transform="matrix(1,0,0,1,235.457,295.583)">
            <path d="M0,5.91C-3.128,5.91 -7.244,3.335 -7.425,3.219C-7.871,2.938 -8.002,2.347 -7.72,1.894C-7.437,1.452 -6.844,1.313 -6.396,1.598C-5.265,2.31 -1.866,4.135 0.235,3.985C2.219,3.846 2.298,0.971 2.298,0.942C2.306,0.412 2.785,0 3.275,0.002C3.803,0.007 4.223,0.449 4.214,0.976C4.184,2.591 3.341,5.688 0.372,5.899C0.248,5.91 0.123,5.91 0,5.91" style="fill:rgb(13,34,37);fill-rule:nonzero;"/>
        </g>
        <g transform="matrix(1,0,0,1,245.715,251.265)">
            <path d="M0,8.273C-0.478,8.273 -0.943,8.038 -1.216,7.607C-3.048,4.733 -5.129,3.205 -7.412,3.063C-11.146,2.839 -14.92,6.368 -16.061,7.749C-16.563,8.362 -17.471,8.452 -18.083,7.942C-18.697,7.438 -18.784,6.531 -18.277,5.917C-18.073,5.67 -13.173,-0.179 -7.235,0.191C-3.983,0.391 -1.139,2.367 1.208,6.063C1.635,6.734 1.44,7.622 0.772,8.048C0.529,8.201 0.262,8.273 0,8.273" style="fill:rgb(13,34,37);fill-rule:nonzero;"/>
        </g>
        <g transform="matrix(1,0,0,1,203.695,267.291)">
            <path d="M0,9.553C-0.44,9.553 -0.872,9.355 -1.156,8.981C-6.392,1.993 -13.307,5.83 -13.594,5.998C-14.285,6.389 -15.164,6.153 -15.56,5.468C-15.956,4.781 -15.724,3.907 -15.041,3.508C-11.815,1.633 -4.289,0 1.146,7.25C1.624,7.888 1.494,8.791 0.858,9.265C0.601,9.459 0.295,9.553 0,9.553" style="fill:rgb(13,34,37);fill-rule:nonzero;"/>
        </g>
        <g transform="matrix(1,0,0,1,364.495,360.552)">
            <path d="M0,-94.27C8.766,-98.118 20.217,-90.746 16.035,-79.556C11.852,-68.367 -19.83,-26.796 -31.411,-11.472C-42.996,3.848 -50.908,-9.429 -50.908,-9.429L-68.438,-40.31L-68.211,-41.353C-66.734,-48.564 -66.149,-55.726 -66.563,-62.156L-66.636,-63.072C-66.636,-63.072 -42.697,-19.854 -39.708,-21.052C-36.717,-22.245 -18.035,-45.915 -7.871,-61.16C2.288,-76.402 4.239,-79.805 4.239,-79.805L0,-94.27Z" style="fill:white;fill-rule:nonzero;"/>
        </g>
        <g transform="matrix(1,0,0,1,297.582,301.7)">
            <path d="M0,18.311L17.258,48.71C17.273,48.73 20.088,53.325 24.469,53.325C27.614,53.321 30.938,51.031 34.355,46.506L36.128,44.176C48.561,27.738 77.689,-10.748 81.6,-21.21C83.238,-25.597 82.069,-28.704 80.798,-30.544C78.879,-33.297 75.46,-35.009 71.866,-35.009C70.767,-35.009 69.693,-34.849 68.669,-34.538L72.709,-20.769L72.398,-20.237C72.321,-20.096 70.313,-16.615 60.235,-1.508C51.01,12.335 31.468,37.647 27.739,39.14C27.527,39.228 27.306,39.262 27.073,39.262L27.07,39.262C25.871,39.262 24.063,39.262 11.126,17.542C7.608,11.639 4.206,5.688 1.91,1.63C1.851,6.763 1.246,12.257 0.113,17.79L0,18.311ZM24.469,56.197C18.437,56.197 14.919,50.405 14.771,50.161L-3.05,18.775L-2.7,17.191C-1.247,10.073 -0.685,3.012 -1.089,-3.214L-1.637,-10.65L1.536,-4.913C11.854,13.706 23.91,33.641 27.052,36.222C30.719,33.457 47.609,12.252 57.845,-3.108C65.808,-15.044 68.727,-19.731 69.596,-21.152L65.176,-36.224L66.33,-36.733C68.074,-37.497 69.935,-37.886 71.866,-37.886C76.387,-37.886 80.711,-35.7 83.16,-32.182C85.511,-28.79 85.916,-24.535 84.295,-20.202C80.234,-9.343 51.991,27.977 38.416,45.91L36.646,48.248C32.661,53.525 28.562,56.197 24.47,56.197L24.469,56.197Z" style="fill:rgb(13,34,37);fill-rule:nonzero;"/>
        </g>
        <g transform="matrix(1,0,0,1,246.771,497.528)">
            <path d="M0,-59.122C-11.531,-44.416 -7.893,-26.008 7.349,-23.609C17.208,-20.62 73.989,-17.637 73.989,-17.637C73.989,-17.637 66.766,-1.618 70.542,0C83.251,-0.007 87.507,-28.094 87.507,-28.094C87.507,-28.094 23.186,-31.684 13.004,-35.413C2.824,-39.143 7.317,-46.011 7.317,-46.011L0,-59.122Z" style="fill:white;fill-rule:nonzero;"/>
        </g>
        <g transform="matrix(1,0,0,1,246.606,493.72)">
            <path d="M0,-52.655C-5.021,-45.34 -6.543,-36.956 -3.944,-30.358C-1.972,-25.338 2.179,-22.098 7.735,-21.221L7.933,-21.179C17.515,-18.273 73.667,-15.291 74.232,-15.261L76.331,-15.153L75.465,-13.235C72.048,-5.657 70.452,1.017 71.177,2.353C79.7,1.754 84.495,-14.792 85.99,-22.942C75.75,-23.538 22.151,-26.784 12.675,-30.256C8.745,-31.689 6.298,-33.784 5.414,-36.462C4.617,-38.862 5.325,-41.051 5.846,-42.183L0,-52.655ZM70.414,5.243L70.138,5.126C69.63,4.911 68.928,4.433 68.521,3.382C67.172,-0.077 70.31,-8.438 72.01,-12.501C61.596,-13.08 16.375,-15.693 7.194,-18.398C0.632,-19.458 -4.271,-23.33 -6.623,-29.301C-9.804,-37.39 -7.637,-47.69 -0.963,-56.197L0.368,-57.898L9.159,-42.139L8.684,-41.409C8.676,-41.405 7.448,-39.426 8.155,-37.342C8.761,-35.549 10.614,-34.073 13.667,-32.954C23.531,-29.338 87.115,-25.76 87.755,-25.724L89.333,-25.637L89.096,-24.072C88.914,-22.873 84.497,5.243 70.708,5.243L70.414,5.243Z" style="fill:rgb(13,34,37);fill-rule:nonzero;"/>
        </g>
        <g transform="matrix(1,0,0,1,211.512,391.872)">
            <path d="M0,-40.892C-3.981,-29.934 1.365,-19.617 1.365,-19.617C1.365,-19.617 20.792,18.688 82.861,-35.967L98.002,-47.924L91.387,-59.58C87.313,-56.095 82.599,-51.822 77.647,-47.561C16.844,4.689 8.481,-32.364 8.481,-32.364L7.534,-33.178C5.037,-35.384 0,-40.892 0,-40.892" style="fill:white;fill-rule:nonzero;"/>
        </g>
        <g transform="matrix(1,0,0,1,212.161,363.009)">
            <path d="M0,-9.216C-2.294,0.139 1.95,8.492 1.999,8.583C2.257,9.091 8.492,20.854 25.184,20.854C40.51,20.854 59.377,11.084 81.262,-8.181L95.492,-19.423L90.348,-28.483C88.711,-27.067 86.98,-25.538 85.173,-23.943C82.838,-21.884 80.427,-19.75 77.935,-17.606C56.089,1.164 38.401,10.681 25.354,10.681C17.215,10.681 12.5,6.927 9.976,3.77C7.816,1.073 6.874,-1.624 6.556,-2.698L5.943,-3.224C4.318,-4.667 1.717,-7.387 0,-9.216M25.184,23.729C6.666,23.729 -0.278,10.459 -0.563,9.897C-0.79,9.462 -6.151,-1.098 -2,-12.518L-1.188,-14.751L0.414,-12.998C0.467,-12.944 5.431,-7.527 7.841,-5.392L9.127,-4.282L9.236,-3.819C9.342,-3.346 12.081,7.803 25.354,7.803C37.69,7.803 54.754,-1.48 76.059,-19.792C78.54,-21.923 80.945,-24.047 83.271,-26.099C85.583,-28.139 87.765,-30.069 89.803,-31.807L91.126,-32.945L99.214,-18.699L83.106,-5.978C60.74,13.719 41.231,23.729 25.184,23.729" style="fill:rgb(13,34,37);fill-rule:nonzero;"/>
        </g>
        <g transform="matrix(1,0,0,1,294.373,360.908)">
            <path d="M0,6.208C-0.008,6.208 -0.012,6.208 -0.024,6.206C-3.391,6.13 -7.396,2.176 -7.845,1.727C-8.222,1.348 -8.214,0.743 -7.84,0.373C-7.463,0 -6.854,0 -6.485,0.375C-5.418,1.45 -2.18,4.238 0.021,4.289C0.552,4.304 0.972,4.745 0.961,5.271C0.947,5.796 0.519,6.208 0,6.208" style="fill:rgb(13,34,37);fill-rule:nonzero;"/>
        </g>
        <g transform="matrix(1,0,0,1,294.009,362.551)">
            <path d="M0,8.248C-6.674,8.248 -9.751,1.559 -9.784,1.482C-10.001,1 -9.784,0.433 -9.301,0.219C-8.818,0 -8.25,0.216 -8.033,0.698C-7.909,0.982 -4.858,7.543 1.85,6.128C2.369,6.019 2.876,6.353 2.989,6.872C3.099,7.389 2.764,7.899 2.246,8.007C1.457,8.173 0.71,8.248 0,8.248" style="fill:rgb(13,34,37);fill-rule:nonzero;"/>
        </g>
        <g transform="matrix(1,0,0,1,200.669,306.06)">
            <path d="M0,-21.265C-1.14,-23.121 -2.707,-24.556 -4.49,-25.543C-1.208,-19.373 -0.65,-3.266 -4.116,-1.703C-6.082,-0.813 -15.021,-4.446 -20.933,-8.73C-20.882,-8.639 -20.835,-8.547 -20.78,-8.452C-17.245,-2.717 -1.978,4.278 0.667,3.079C4.233,1.465 3.539,-15.527 0,-21.265" style="fill:rgb(167,169,172);fill-rule:nonzero;"/>
        </g>
        <g transform="matrix(1,0,0,1,356.343,328.606)">
            <path d="M0,-14.182C-0.559,-14.615 -12.616,-23.554 -29.274,-14.534C-28.885,-15.483 -28.305,-16.487 -27.436,-17.492C-26.232,-18.891 -26.144,-20.873 -27.089,-22.357C-27.299,-22.68 -27.553,-22.981 -27.867,-23.251C-29.573,-24.722 -32.15,-24.528 -33.621,-22.82C-39.575,-15.912 -38.2,-8.797 -37.285,-5.955L-38.103,-6.802L-42.756,-4.074L-36.437,5.677L-30.488,1.032C-23.05,0.84 -16.379,8.692 -16.282,8.796C-15.003,10.33 -12.736,10.54 -11.196,9.265C-9.656,7.987 -9.444,5.712 -10.719,4.17C-10.871,3.99 -12.516,2.046 -15.174,-0.101C-11.724,0.713 -9.186,1.924 -9.116,1.957C-7.093,2.949 -4.652,2.129 -3.649,0.112C-2.649,-1.913 -3.478,-4.358 -5.495,-5.364C-5.919,-5.568 -13.389,-9.199 -21.769,-8.964C-11.871,-12.558 -5.312,-7.964 -4.928,-7.679C-3.137,-6.336 -0.591,-6.681 0.771,-8.464C2.135,-10.256 1.797,-12.817 0,-14.182" style="fill:white;fill-rule:nonzero;"/>
        </g>
        <g transform="matrix(1,0,0,1,326.119,314.878)">
            <path d="M0,13.32C7.884,13.32 14.743,21.252 15.034,21.59C15.798,22.507 17.211,22.635 18.107,21.894C18.561,21.516 18.832,20.993 18.889,20.413C18.939,19.833 18.765,19.268 18.396,18.82C18.232,18.625 16.674,16.785 14.146,14.744C13.618,14.32 13.459,13.596 13.76,12.996C14.053,12.389 14.725,12.072 15.375,12.224C19.072,13.098 21.717,14.384 21.742,14.393C23.042,15.031 24.651,14.468 25.284,13.2C25.599,12.567 25.647,11.848 25.423,11.18C25.195,10.51 24.717,9.97 24.093,9.66C23.794,9.51 16.539,5.974 8.497,6.204C7.803,6.22 7.174,5.728 7.04,5.032C6.911,4.341 7.303,3.653 7.959,3.412C10.62,2.444 13.287,1.958 15.896,1.958C21.954,1.958 25.738,4.588 26.147,4.886C26.622,5.244 27.169,5.429 27.744,5.429C28.578,5.429 29.348,5.048 29.854,4.388C30.73,3.23 30.506,1.57 29.354,0.686C29.137,0.52 23.96,-3.379 15.791,-3.379C11.1,-3.379 6.337,-2.089 1.635,0.458C1.096,0.744 0.441,0.672 -0.014,0.264C-0.464,-0.146 -0.611,-0.786 -0.38,-1.352C0.103,-2.536 0.803,-3.665 1.696,-4.704C2.448,-5.58 2.544,-6.877 1.923,-7.851C1.789,-8.065 1.62,-8.256 1.423,-8.424C0.347,-9.351 -1.398,-9.216 -2.307,-8.151C-7.81,-1.769 -6.507,4.801 -5.693,7.332C-5.482,7.965 -5.748,8.662 -6.313,9.003C-6.887,9.348 -7.623,9.257 -8.089,8.778L-8.127,8.74L-10.506,10.134L-5.864,17.305L-1.149,13.627C-0.906,13.435 -0.607,13.331 -0.299,13.324L0,13.32ZM16.725,25.266C15.221,25.266 13.796,24.604 12.83,23.441C12.781,23.383 6.715,16.364 0.229,16.2L-5.332,20.543C-5.648,20.786 -6.059,20.891 -6.452,20.821C-6.852,20.761 -7.201,20.522 -7.422,20.186L-13.741,10.434C-13.951,10.103 -14.021,9.702 -13.932,9.321C-13.841,8.937 -13.595,8.611 -13.261,8.41L-9.004,5.916C-9.692,2.16 -9.663,-4.027 -4.489,-10.034C-3.438,-11.251 -1.914,-11.946 -0.307,-11.946C1.018,-11.946 2.295,-11.47 3.299,-10.609C3.7,-10.265 4.058,-9.858 4.351,-9.401C5.364,-7.802 5.471,-5.804 4.708,-4.131C8.396,-5.545 12.108,-6.262 15.791,-6.262C24.768,-6.262 30.479,-2.076 31.103,-1.598C33.518,0.243 33.982,3.718 32.14,6.136C31.082,7.514 29.483,8.306 27.744,8.306C27.477,8.306 27.21,8.288 26.944,8.248C27.479,8.82 27.888,9.501 28.147,10.262C28.621,11.658 28.517,13.156 27.861,14.475C26.921,16.365 25.027,17.544 22.914,17.544C22.145,17.544 21.396,17.385 20.687,17.079C21.498,18.104 21.874,19.382 21.749,20.683C21.629,22.029 20.983,23.243 19.941,24.106C19.037,24.852 17.896,25.266 16.725,25.266" style="fill:rgb(13,34,37);fill-rule:nonzero;"/>
        </g>
        <g transform="matrix(1,0,0,1,231.721,283.976)">
            <path d="M0,-9.569C1.007,-15.59 6.269,-19.826 12.188,-19.75C11.269,-20.162 10.283,-20.475 9.24,-20.65C2.589,-21.76 -3.701,-17.27 -4.81,-10.621C-5.919,-3.967 -0.147,12.027 3.757,12.173C4.255,12.191 5.011,11.84 5.916,11.224C2.528,6.702 -0.87,-4.329 0,-9.569" style="fill:rgb(167,169,172);fill-rule:nonzero;"/>
        </g>
        <g transform="matrix(0.899441,-0.437043,-0.437043,-0.899441,243.249,396.832)">
            <path d="M-2.862,14.469C7.522,6.915 27.311,4.363 63.87,14.469" style="fill:white;fill-rule:nonzero;"/>
        </g>
        <g transform="matrix(1,0,0,1,239.241,354.828)">
            <path d="M0,32.099C-1.775,32.099 -3.492,31.952 -5.142,31.66L-4.637,28.826C9.75,31.388 29.541,21.697 54.182,0L56.083,2.158C33.486,22.056 14.661,32.099 0,32.099" style="fill:rgb(13,34,37);fill-rule:nonzero;"/>
        </g>
        <g transform="matrix(1,0,0,1,233.949,360.173)">
            <path d="M0,24.721C12.767,26.098 30.646,21.95 59.11,-3.12L63.045,2.775C63.045,2.775 61.482,4.372 60.241,8.237C31.619,25.449 12.582,27.841 0.705,25.022L0,24.721Z" style="fill:rgb(54,18,21);fill-rule:nonzero;"/>
        </g>
        <g transform="matrix(1,0,0,1,268.618,502.552)">
            <path d="M0,-23.215C19.898,-19.353 50.75,-14.95 50.75,-14.95C50.75,-14.95 42.127,0.361 45.742,2.306C58.402,3.441 64.466,-21.697 64.466,-21.697L-1.947,-26.656C-1.947,-26.656 -1.796,-26.397 0,-23.215" style="fill:rgb(54,18,21);fill-rule:nonzero;"/>
        </g>
        <g transform="matrix(1,0,0,1,374.46,361.295)">
            <path d="M0,-61.02L-3.363,-72.49L-17.836,-53.537L-38.213,-26.74C-38.213,-26.74 -48.546,-13.877 -49.673,-13.423C-52.662,-12.23 -76.601,-55.443 -76.601,-55.443L-76.528,-54.533C-76.114,-48.097 -76.699,-40.937 -78.176,-33.727L-78.402,-32.683L-60.873,-1.806C-60.873,-1.806 -52.961,11.47 -41.376,-3.846C-38.806,-7.245 -34.383,-13.294 -29.364,-20.213C-28.505,-20.186 -27.633,-20.441 -26.923,-21.032C-25.707,-22.038 -25.334,-23.662 -25.853,-25.059C-25.148,-26.035 -24.438,-27.012 -23.729,-27.997C-21.994,-27.698 -20.205,-28.53 -19.38,-30.185C-18.767,-31.418 -18.844,-32.805 -19.445,-33.933C-18.617,-35.079 -17.793,-36.225 -16.979,-37.352C-16.205,-37.597 -15.487,-38.069 -14.958,-38.763C-14.377,-39.525 -14.121,-40.421 -14.139,-41.306C-6.312,-52.192 0,-61.02 0,-61.02" style="fill:rgb(190,71,38);fill-rule:nonzero;"/>
        </g>
        <g transform="matrix(1,0,0,1,391.973,388.598)">
            <path d="M0,-28.617C0,-28.617 -1.225,-29.176 -2.104,-29.508C-2.104,-29.508 -13.566,-15.474 -38.987,-8.02C-55.161,-3.278 -72.99,-6.926 -83.822,-10.208C-82.203,-8.124 -80.559,-6.06 -78.898,-4.008C-68.04,-1.242 -52.901,0.891 -38.987,-3.189C-13.566,-10.646 -2.104,-24.674 -2.104,-24.674C-1.225,-24.346 1.579,-23.223 1.579,-23.223L0,-28.617Z" style="fill:rgb(190,71,38);fill-rule:nonzero;"/>
        </g>
        <g transform="matrix(1,0,0,1,298.042,380.764)">
            <path d="M0,-6.015C-1.658,-6.836 -2.833,-8.238 -3.424,-9.841C-4.65,-6.544 -3.222,-2.784 0,-1.181C0,-1.181 6.056,1.539 15.032,3.826C13.372,1.773 11.728,-0.29 10.108,-2.374C3.922,-4.258 0,-6.015 0,-6.015" style="fill:rgb(54,18,21);fill-rule:nonzero;"/>
        </g>
        <g transform="matrix(1,0,0,1,229.635,306.899)">
            <path d="M0,65.038C-2.625,60.449 -6.227,57.184 -6.645,56.812C-23.605,44.465 -37.4,20.705 -39.459,0.29L-36.591,0C-34.609,19.697 -21.284,42.623 -4.901,54.524L-4.808,54.602C-4.634,54.75 -0.533,58.312 2.498,63.611L0,65.038Z" style="fill:rgb(13,34,37);fill-rule:nonzero;"/>
        </g>
        <g transform="matrix(1,0,0,1,286.735,245.723)">
            <path d="M0,102.415L-2.459,100.921C6.316,86.473 11.159,66.314 9.593,50.77C8.206,36.976 1.522,24.548 -9.21,15.777C-19.949,7.005 -33.461,2.936 -47.252,4.33C-65.881,6.207 -82.121,18.041 -89.632,35.211L-92.27,34.058C-84.342,15.936 -67.202,3.449 -47.542,1.467C-32.981,0 -18.724,4.29 -7.392,13.551C3.941,22.807 10.99,35.924 12.459,50.48C14.08,66.599 9.074,87.47 0,102.415" style="fill:rgb(13,34,37);fill-rule:nonzero;"/>
        </g>
        <g transform="matrix(1,0,0,1,394.332,493.665)">
            <path d="M0,-28.348L-5.9,-36.986L-29.039,-5.901C-20.077,6.464 -5.731,8.638 -3.339,5.298C-0.952,1.96 -12.906,-5.901 -12.906,-5.901L-4.295,-16.764L2.405,-18.047L0,-28.348Z" style="fill:rgb(54,18,21);fill-rule:nonzero;"/>
        </g>
        <g transform="matrix(1,0,0,1,237.084,381.212)">
            <path d="M0,11.7C-0.124,11.7 -0.256,11.676 -0.38,11.625C-0.864,11.413 -1.089,10.849 -0.878,10.362C0.009,8.311 -0.625,3.047 -0.946,1.195C-1.035,0.674 -0.684,0.179 -0.163,0.086C0.355,0 0.857,0.348 0.943,0.872C1.072,1.613 2.153,8.175 0.883,11.127C0.726,11.484 0.372,11.7 0,11.7" style="fill:rgb(13,34,37);fill-rule:nonzero;"/>
        </g>
        <g transform="matrix(0.264471,0.964394,0.964394,-0.264471,322.702,339.38)">
            <path d="M-18.576,-24.878C-18.576,-24.878 24.369,-22.094 32.476,-24.878" style="fill:white;fill-rule:nonzero;"/>
        </g>
        <g transform="matrix(-0.998101,-0.0615983,-0.0615983,0.998101,294.537,327.136)">
            <path d="M-17.265,49.265L-14.391,49.265C-14.4,42.712 -3.663,15.158 2.011,1.504L-0.643,0.399C-1.322,2.033 -17.276,40.507 -17.265,49.265" style="fill:rgb(13,34,37);fill-rule:nonzero;"/>
        </g>
        <g transform="matrix(1,0,0,1,211.512,391.872)">
            <path d="M0,-40.892C-3.981,-29.934 1.365,-19.617 1.365,-19.617C1.365,-19.617 20.792,18.688 82.861,-35.967L98.002,-47.924L91.387,-59.58C87.313,-56.095 82.599,-51.822 77.647,-47.561C16.844,4.689 8.481,-32.364 8.481,-32.364L7.534,-33.178C5.037,-35.384 0,-40.892 0,-40.892" style="fill:white;fill-rule:nonzero;"/>
        </g>
        <g transform="matrix(0,-1,-1,0,335.983,248.349)">
            <path d="M-6.07,-6.073C-9.424,-6.073 -12.142,-3.354 -12.142,0C-12.142,3.354 -9.424,6.07 -6.07,6.07C-2.714,6.07 -0.001,3.354 -0.001,0C-0.001,-3.354 -2.714,-6.073 -6.07,-6.073" style="fill:rgb(13,34,37);fill-rule:nonzero;"/>
        </g>
        <g transform="matrix(0,-1,-1,0,300.442,262.88)">
            <path d="M-6.07,-6.073C-9.423,-6.073 -12.142,-3.355 -12.142,-0.002C-12.142,3.35 -9.423,6.07 -6.07,6.07C-2.717,6.07 -0.002,3.35 -0.002,-0.002C-0.002,-3.355 -2.717,-6.073 -6.07,-6.073" style="fill:rgb(13,34,37);fill-rule:nonzero;"/>
        </g>
        <g transform="matrix(-0.605139,0.79612,0.79612,0.605139,331.905,250.373)">
            <path d="M-19.394,-9.619L4.771,-9.619" style="fill:none;fill-rule:nonzero;"/>
        </g>
        <g transform="matrix(1,0,0,1,321.36,227.489)">
            <path d="M0,22.298C-0.306,22.298 -0.613,22.202 -0.872,22.005C-1.502,21.526 -1.631,20.623 -1.146,19.988L13.479,0.754C13.96,0.12 14.864,0 15.499,0.477C16.125,0.958 16.252,1.861 15.772,2.493L1.142,21.73C0.859,22.102 0.431,22.298 0,22.298" style="fill:rgb(13,34,37);fill-rule:nonzero;"/>
        </g>
        <g transform="matrix(-0.932617,0.360867,0.360867,0.932617,286.386,261.826)">
            <path d="M-16.249,-3.034C-16.249,-3.034 -5.452,-6.853 0.567,-3.034" style="fill:white;fill-rule:nonzero;"/>
        </g>
        <g transform="matrix(1,0,0,1,284.763,251.658)">
            <path d="M0,8.98C-0.296,8.98 -0.6,8.891 -0.857,8.701C-1.495,8.227 -1.631,7.329 -1.158,6.688C3.439,0.464 15.146,0.049 15.639,0.035C16.42,0 17.093,0.637 17.118,1.431C17.143,2.224 16.518,2.887 15.722,2.91C15.618,2.916 4.924,3.299 1.154,8.397C0.871,8.777 0.44,8.98 0,8.98" style="fill:rgb(13,34,37);fill-rule:nonzero;"/>
        </g>
        <g transform="matrix(1,0,0,1,318.813,277.36)">
            <path d="M0,22.701C-2.224,22.701 -4.317,21.727 -6.239,19.796C-6.806,19.234 -6.806,18.322 -6.239,17.76C-5.678,17.201 -4.766,17.203 -4.205,17.765C-2.532,19.442 -0.836,20.081 0.992,19.727C7.325,18.475 13.859,5.844 15.841,1.08C16.148,0.347 16.986,0 17.726,0.308C18.456,0.613 18.809,1.453 18.501,2.185C18.181,2.942 10.671,20.749 1.551,22.546C1.026,22.65 0.507,22.701 0,22.701" style="fill:rgb(13,34,37);fill-rule:nonzero;"/>
        </g>
        <g transform="matrix(1,0,0,1,343.871,358.404)">
            <path d="M0,171.727C-9.23,171.727 -19.29,170.552 -26.011,167.96C-57.977,157.151 -65.946,141.943 -83.397,108.635C-88.479,98.931 -94.238,87.937 -101.663,74.992C-116.684,48.794 -111.856,27.461 -111.645,26.563L-108.842,27.233C-108.891,27.439 -113.589,48.409 -99.166,73.559C-91.716,86.556 -85.938,97.576 -80.85,107.295C-63.764,139.903 -55.965,154.788 -25.032,165.253C-14.61,169.272 4.129,169.732 14.469,167.646C28.175,164.876 39.779,156.201 46.309,143.854C52.096,132.902 53.271,120.35 49.623,108.516C45.971,96.68 37.934,86.969 26.978,81.179C5.583,69.871 -26,37.984 -48.108,5.373C-48.511,4.783 -49.572,4.397 -50.604,4.032C-52.01,3.521 -53.61,2.949 -54.504,1.549L-52.08,0C-51.712,0.575 -50.651,0.955 -49.631,1.321C-48.233,1.821 -46.653,2.391 -45.728,3.759C-24.198,35.505 7.635,67.701 28.327,78.638C39.955,84.783 48.498,95.096 52.375,107.665C56.249,120.236 55.001,133.567 48.852,145.2C41.914,158.313 29.593,167.524 15.031,170.465C10.969,171.29 5.637,171.727 0,171.727" style="fill:rgb(13,34,37);fill-rule:nonzero;"/>
        </g>
        <g transform="matrix(1,0,0,1,247.945,226.637)">
            <path d="M0,20.447C1.971,20.654 5.827,21.094 9.247,21.741C11.471,20.424 16.05,18.008 19.707,18.008C20.411,18.008 21.052,18.097 21.629,18.276C21.951,18.373 22.282,18.425 22.616,18.425C24.086,18.425 25.369,17.471 25.809,16.062C26.347,14.3 25.356,12.427 23.593,11.883C21.929,11.369 20.038,11.226 17.981,11.456L13.878,11.916L16.807,9.007C19.643,6.191 21.042,5.836 21.844,5.816L21.975,5.811L22.104,5.831C23.963,6.118 25.636,4.847 25.916,3.036C26.193,1.214 24.94,-0.497 23.119,-0.778C19.116,-1.391 14.273,1.451 9.135,7.397L7.167,9.684L6.631,6.714C6.348,5.122 4.959,3.966 3.344,3.966C1.499,3.966 0,5.465 0,7.306L0,20.447ZM9.792,24.781L9.238,24.67C4.538,23.74 -1.511,23.189 -1.57,23.184L-2.877,23.064L-2.877,7.306C-2.877,3.88 -0.089,1.086 3.344,1.086C5.468,1.086 7.369,2.155 8.495,3.817C13.824,-1.821 18.915,-4.334 23.556,-3.62C26.947,-3.1 29.281,0.084 28.76,3.475C28.299,6.452 25.836,8.632 22.853,8.743C23.399,8.843 23.926,8.975 24.438,9.133C27.721,10.141 29.563,13.631 28.557,16.909C27.747,19.536 25.358,21.298 22.616,21.298C21.993,21.298 21.376,21.207 20.782,21.024C20.48,20.93 20.122,20.885 19.707,20.885C17.477,20.885 13.951,22.231 10.27,24.484L9.792,24.781Z" style="fill:rgb(13,34,37);fill-rule:nonzero;"/>
        </g>
        <g transform="matrix(0,-1,-1,0,186.893,285.779)">
            <path d="M-4.235,-4.24C-6.578,-4.24 -8.476,-2.346 -8.476,-0.002C-8.476,2.342 -6.578,4.235 -4.235,4.235C-1.896,4.235 0.001,2.342 0.001,-0.002C0.001,-2.346 -1.896,-4.24 -4.235,-4.24" style="fill:rgb(13,34,37);fill-rule:nonzero;"/>
        </g>
        <g transform="matrix(1,0,0,1,202.224,305.283)">
            <path d="M0,8.563C-2.755,8.563 -5.444,4.468 -5.791,3.923C-6.073,3.474 -5.941,2.89 -5.495,2.604C-5.05,2.321 -4.458,2.45 -4.172,2.896C-3.248,4.348 -0.809,7.275 0.432,6.516C2.23,5.414 3.939,1.959 4.445,0.72C4.65,0.233 5.21,0 5.699,0.197C6.187,0.399 6.423,0.956 6.226,1.449C6.142,1.651 4.137,6.5 1.429,8.15C0.959,8.441 0.476,8.563 0,8.563" style="fill:rgb(13,34,37);fill-rule:nonzero;"/>
        </g>
        <g transform="matrix(1,0,0,1,239.065,294.704)">
            <path d="M0,-30.007C-5.116,-30.007 -9.556,-26.357 -10.551,-21.323C-11.558,-16.23 -8.31,-5.125 -5.264,-1.147C-4.507,-0.165 -4.074,-0.028 -3.996,-0.001C-1.523,-0.263 9.378,-11.091 10.576,-17.147C11.727,-22.97 7.926,-28.65 2.103,-29.798C1.411,-29.937 0.7,-30.007 0,-30.007M-4.005,2.875L-4.176,2.871C-5.334,2.791 -6.439,2.046 -7.546,0.601C-11.039,-3.954 -14.557,-15.906 -13.374,-21.883C-12.113,-28.257 -6.484,-32.882 0,-32.882C0.886,-32.882 1.782,-32.798 2.659,-32.623C10.041,-31.163 14.86,-23.971 13.396,-16.59C12.034,-9.693 0.045,2.875 -4.005,2.875" style="fill:rgb(13,34,37);fill-rule:nonzero;"/>
        </g>
        <g transform="matrix(0.350037,0.936736,0.936736,-0.350037,240.118,270.2)">
            <path d="M2.27,-1.572C3.607,-1.577 4.689,-0.491 4.69,0.844C4.691,2.185 3.609,3.268 2.27,3.27C0.934,3.269 -0.155,2.187 -0.153,0.85C-0.152,-0.489 0.932,-1.571 2.27,-1.572" style="fill:rgb(13,34,37);fill-rule:nonzero;"/>
        </g>
        <g transform="matrix(1,0,0,1,235.457,295.583)">
            <path d="M0,5.91C-3.128,5.91 -7.244,3.335 -7.425,3.219C-7.871,2.938 -8.002,2.347 -7.72,1.894C-7.437,1.452 -6.844,1.313 -6.396,1.598C-5.265,2.31 -1.866,4.135 0.235,3.985C2.219,3.846 2.298,0.971 2.298,0.942C2.306,0.412 2.785,0 3.275,0.002C3.803,0.007 4.223,0.449 4.214,0.976C4.184,2.591 3.341,5.688 0.372,5.899C0.248,5.91 0.123,5.91 0,5.91" style="fill:rgb(13,34,37);fill-rule:nonzero;"/>
        </g>
        <g transform="matrix(1,0,0,1,245.715,251.265)">
            <path d="M0,8.273C-0.478,8.273 -0.943,8.038 -1.216,7.607C-3.048,4.733 -5.129,3.205 -7.412,3.063C-11.146,2.839 -14.92,6.368 -16.061,7.749C-16.563,8.362 -17.471,8.452 -18.083,7.942C-18.697,7.438 -18.784,6.531 -18.277,5.917C-18.073,5.67 -13.173,-0.179 -7.235,0.191C-3.983,0.391 -1.139,2.367 1.208,6.063C1.635,6.734 1.44,7.622 0.772,8.048C0.529,8.201 0.262,8.273 0,8.273" style="fill:rgb(13,34,37);fill-rule:nonzero;"/>
        </g>
        <g transform="matrix(1,0,0,1,203.695,267.291)">
            <path d="M0,9.553C-0.44,9.553 -0.872,9.355 -1.156,8.981C-6.392,1.993 -13.307,5.83 -13.594,5.998C-14.285,6.389 -15.164,6.153 -15.56,5.468C-15.956,4.781 -15.724,3.907 -15.041,3.508C-11.815,1.633 -4.289,0 1.146,7.25C1.624,7.888 1.494,8.791 0.858,9.265C0.601,9.459 0.295,9.553 0,9.553" style="fill:rgb(13,34,37);fill-rule:nonzero;"/>
        </g>
        <g transform="matrix(1,0,0,1,211.486,320.055)">
            <path d="M0,15.672C-1.656,15.672 -2.995,14.523 -3.962,13.694C-5.446,12.415 -5.797,12.322 -6.325,12.645C-7.003,13.061 -7.888,12.851 -8.302,12.169C-8.718,11.495 -8.504,10.603 -7.828,10.191C-5.37,8.685 -3.395,10.389 -2.084,11.51C-0.731,12.672 -0.206,12.986 0.454,12.672C1.34,12.245 1.634,11.099 2.01,9.264C2.424,7.246 2.94,4.739 5.423,3.848C7.973,2.936 9.871,4.73 11.257,6.043C12.521,7.238 13.351,7.954 14.249,7.731C15.054,7.534 15.352,6.716 15.792,5.02C16.264,3.212 16.909,0.734 19.672,0.352C22.223,0 23.952,1.817 25.475,3.418C26.598,4.604 27.663,5.722 28.775,5.722C28.813,5.722 28.845,5.718 28.886,5.718C29.655,5.718 30.295,6.335 30.321,7.112C30.345,7.902 29.721,8.574 28.932,8.599C26.509,8.68 24.847,6.937 23.388,5.399C21.999,3.942 21.071,3.06 20.063,3.2C19.328,3.308 19.058,3.899 18.577,5.748C18.118,7.499 17.492,9.899 14.93,10.526C12.449,11.132 10.691,9.472 9.279,8.132C7.89,6.815 7.195,6.27 6.392,6.558C5.479,6.886 5.203,8.015 4.828,9.842C4.432,11.778 3.935,14.192 1.691,15.265C1.094,15.549 0.528,15.672 0,15.672" style="fill:rgb(13,34,37);fill-rule:nonzero;"/>
        </g>
        <g transform="matrix(1,0,0,1,246.771,497.528)">
            <path d="M0,-59.122C-11.531,-44.416 -7.893,-26.008 7.349,-23.609C17.208,-20.62 73.989,-17.637 73.989,-17.637C73.989,-17.637 66.766,-1.618 70.542,0C83.251,-0.007 87.507,-28.094 87.507,-28.094C87.507,-28.094 23.186,-31.684 13.004,-35.413C2.824,-39.143 7.317,-46.011 7.317,-46.011L0,-59.122Z" style="fill:white;fill-rule:nonzero;"/>
        </g>
        <g transform="matrix(1,0,0,1,246.606,493.72)">
            <path d="M0,-52.655C-5.021,-45.34 -6.543,-36.956 -3.944,-30.358C-1.972,-25.338 2.179,-22.098 7.735,-21.221L7.933,-21.179C17.515,-18.273 73.667,-15.291 74.232,-15.261L76.331,-15.153L75.465,-13.235C72.048,-5.657 70.452,1.017 71.177,2.353C79.7,1.754 84.495,-14.792 85.99,-22.942C75.75,-23.538 22.151,-26.784 12.675,-30.256C8.745,-31.689 6.298,-33.784 5.414,-36.462C4.617,-38.862 5.325,-41.051 5.846,-42.183L0,-52.655ZM70.414,5.243L70.138,5.126C69.63,4.911 68.928,4.433 68.521,3.382C67.172,-0.077 70.31,-8.438 72.01,-12.501C61.596,-13.08 16.375,-15.693 7.194,-18.398C0.632,-19.458 -4.271,-23.33 -6.623,-29.301C-9.804,-37.39 -7.637,-47.69 -0.963,-56.197L0.368,-57.898L9.159,-42.139L8.684,-41.409C8.676,-41.405 7.448,-39.426 8.155,-37.342C8.761,-35.549 10.614,-34.073 13.667,-32.954C23.531,-29.338 87.115,-25.76 87.755,-25.724L89.333,-25.637L89.096,-24.072C88.914,-22.873 84.497,5.243 70.708,5.243L70.414,5.243Z" style="fill:rgb(13,34,37);fill-rule:nonzero;"/>
        </g>
        <g transform="matrix(1,0,0,1,235.692,362.587)">
            <path d="M0,9.598C-0.105,9.598 -0.214,9.578 -0.321,9.541C-0.818,9.363 -1.08,8.813 -0.904,8.314C-0.09,6.005 -2.564,2.776 -3.586,1.723C-3.954,1.343 -3.946,0.739 -3.565,0.365C-3.192,0 -2.58,0.006 -2.21,0.385C-2.026,0.573 2.284,5.064 0.903,8.953C0.764,9.35 0.392,9.598 0,9.598" style="fill:rgb(13,34,37);fill-rule:nonzero;"/>
        </g>
        <g transform="matrix(1,0,0,1,242.353,384.153)">
            <path d="M0,11.131C-0.335,11.131 -0.657,10.959 -0.835,10.644C-1.789,8.98 -2.753,2.45 -2.938,1.157C-3.011,0.631 -2.646,0.152 -2.122,0.075C-1.591,0 -1.111,0.363 -1.036,0.887C-0.634,3.736 0.232,8.65 0.829,9.694C1.092,10.154 0.931,10.738 0.471,10.999C0.323,11.089 0.161,11.131 0,11.131" style="fill:rgb(13,34,37);fill-rule:nonzero;"/>
        </g>
        <g transform="matrix(1,0,0,1,212.161,363.009)">
            <path d="M0,-9.216C-2.294,0.139 1.95,8.492 1.999,8.583C2.257,9.091 8.492,20.854 25.184,20.854C40.51,20.854 59.377,11.084 81.262,-8.181L95.492,-19.423L90.348,-28.483C88.711,-27.067 86.98,-25.538 85.173,-23.943C82.838,-21.884 80.427,-19.75 77.935,-17.606C56.089,1.164 38.401,10.681 25.354,10.681C17.215,10.681 12.5,6.927 9.976,3.77C7.816,1.073 6.874,-1.624 6.556,-2.698L5.943,-3.224C4.318,-4.667 1.717,-7.387 0,-9.216M25.184,23.729C6.666,23.729 -0.278,10.459 -0.563,9.897C-0.79,9.462 -6.151,-1.098 -2,-12.518L-1.188,-14.751L0.414,-12.998C0.467,-12.944 5.431,-7.527 7.841,-5.392L9.127,-4.282L9.236,-3.819C9.342,-3.346 12.081,7.803 25.354,7.803C37.69,7.803 54.754,-1.48 76.059,-19.792C78.54,-21.923 80.945,-24.047 83.271,-26.099C85.583,-28.139 87.765,-30.069 89.803,-31.807L91.126,-32.945L99.214,-18.699L83.106,-5.978C60.74,13.719 41.231,23.729 25.184,23.729" style="fill:rgb(13,34,37);fill-rule:nonzero;"/>
        </g>
        <g transform="matrix(1,0,0,1,294.373,360.908)">
            <path d="M0,6.208C-0.008,6.208 -0.012,6.208 -0.024,6.206C-3.391,6.13 -7.396,2.176 -7.845,1.727C-8.222,1.348 -8.214,0.743 -7.84,0.373C-7.463,0 -6.854,0 -6.485,0.375C-5.418,1.45 -2.18,4.238 0.021,4.289C0.552,4.304 0.972,4.745 0.961,5.271C0.947,5.796 0.519,6.208 0,6.208" style="fill:rgb(13,34,37);fill-rule:nonzero;"/>
        </g>
        <g transform="matrix(1,0,0,1,294.009,362.551)">
            <path d="M0,8.248C-6.674,8.248 -9.751,1.559 -9.784,1.482C-10.001,1 -9.784,0.433 -9.301,0.219C-8.818,0 -8.25,0.216 -8.033,0.698C-7.909,0.982 -4.858,7.543 1.85,6.128C2.369,6.019 2.876,6.353 2.989,6.872C3.099,7.389 2.764,7.899 2.246,8.007C1.457,8.173 0.71,8.248 0,8.248" style="fill:rgb(13,34,37);fill-rule:nonzero;"/>
        </g>
        <g transform="matrix(1,0,0,1,237.926,355.715)">
            <path d="M0,16.601C-0.027,16.601 -0.05,16.601 -0.075,16.598C-0.606,16.559 -0.999,16.102 -0.959,15.571C-0.185,5.542 -8.048,2.123 -8.382,1.98C-8.867,1.771 -9.101,1.212 -8.893,0.724C-8.692,0.234 -8.134,0 -7.645,0.205C-7.55,0.244 1.837,4.274 0.957,15.718C0.915,16.222 0.497,16.601 0,16.601" style="fill:rgb(13,34,37);fill-rule:nonzero;"/>
        </g>
        <g transform="matrix(1,0,0,1,240.53,359.551)">
            <path d="M0,12.765C-0.466,12.765 -0.873,12.426 -0.948,11.953C-1.962,5.423 4.691,0.517 4.978,0.312C5.406,0 6.002,0.095 6.318,0.524C6.626,0.951 6.53,1.551 6.105,1.863C6.044,1.905 0.111,6.29 0.947,11.66C1.03,12.191 0.671,12.674 0.146,12.756C0.097,12.762 0.048,12.765 0,12.765" style="fill:rgb(13,34,37);fill-rule:nonzero;"/>
        </g>
        <g transform="matrix(0.393304,0.919408,0.919408,-0.393304,281.09,343.208)">
            <path d="M-3.335,-5.054C-3.335,-5.054 5.304,-7.335 7.659,-5.054" style="fill:white;fill-rule:nonzero;"/>
        </g>
        <g transform="matrix(1,0,0,1,279.456,341.108)">
            <path d="M0,12.088C-0.121,12.088 -0.249,12.068 -0.37,12.018C-3.721,10.61 -5.042,2.728 -5.272,1.164C-5.35,0.634 -4.989,0.151 -4.463,0.074C-3.941,0 -3.455,0.361 -3.378,0.882C-2.865,4.331 -1.364,9.523 0.37,10.245C0.86,10.457 1.091,11.009 0.889,11.501C0.73,11.869 0.376,12.088 0,12.088" style="fill:rgb(13,34,37);fill-rule:nonzero;"/>
        </g>
        <g transform="matrix(1,0,0,1,280.81,335.727)">
            <path d="M0,17.199C-0.352,17.199 -0.69,17.004 -0.859,16.67C-4.948,8.589 -0.238,0.902 -0.038,0.58C0.239,0.133 0.832,0 1.281,0.281C1.73,0.563 1.867,1.153 1.59,1.602C1.544,1.673 -2.74,8.703 0.851,15.805C1.095,16.279 0.902,16.852 0.432,17.093C0.294,17.166 0.143,17.199 0,17.199" style="fill:rgb(13,34,37);fill-rule:nonzero;"/>
        </g>
        <g transform="matrix(1,0,0,1,190.269,307.841)">
            <path d="M0,-27.408C-1.988,-27.408 -3.939,-26.855 -5.642,-25.804C-10.694,-22.692 -12.272,-16.042 -9.158,-10.984C-6.146,-6.107 6.773,-0.005 10.249,-0.005C10.418,-0.005 10.493,-0.02 10.51,-0.022C10.504,-0.025 10.887,-0.264 11.277,-1.54C12.74,-6.331 11.903,-17.871 9.177,-22.29C7.2,-25.496 3.772,-27.408 0,-27.408M10.249,2.876C5.541,2.876 -8.179,-3.917 -11.605,-9.479C-15.551,-15.882 -13.553,-24.304 -7.153,-28.256C-4.995,-29.584 -2.521,-30.284 0,-30.284C4.776,-30.284 9.12,-27.862 11.629,-23.796C14.825,-18.612 15.706,-6.187 14.026,-0.697C13.494,1.049 12.718,2.129 11.663,2.612C11.269,2.79 10.807,2.876 10.249,2.876" style="fill:rgb(13,34,37);fill-rule:nonzero;"/>
        </g>
        <g transform="matrix(1,0,0,1,301.155,355.267)">
            <path d="M0,7.719C-2.113,7.719 -4.01,8.89 -4.95,10.777C-6.312,13.509 -5.199,16.838 -2.475,18.194C-2.349,18.255 15.446,26.142 34.879,26.142C40.849,26.142 46.418,25.4 51.425,23.93C76.132,16.683 87.487,3.053 87.603,2.912C87.99,2.431 88.641,2.258 89.222,2.476C90.265,2.872 91.253,3.305 92.15,3.774C95.242,5.369 97.257,7.259 98.136,9.385C98.498,10.253 99.393,10.795 100.326,10.697C100.534,10.673 100.727,10.629 100.921,10.544C102.016,10.096 102.533,8.844 102.085,7.757C100.982,5.086 99.329,2.966 97.173,1.444C96.705,1.117 96.476,0.537 96.592,-0.016C96.698,-0.578 97.136,-1.014 97.69,-1.138C99.268,-1.481 101.009,-1.656 102.854,-1.656C106.132,-1.656 108.617,-1.113 108.643,-1.106C108.799,-1.073 108.96,-1.054 109.117,-1.054C110.122,-1.054 110.973,-1.74 111.202,-2.713C111.46,-3.857 110.739,-5.005 109.596,-5.267C109.529,-5.283 109.428,-5.313 109.281,-5.364C108.655,-5.557 106.762,-6.156 102.837,-6.156C100.847,-6.156 98.625,-6.003 96.228,-5.694C95.582,-5.613 94.96,-5.974 94.713,-6.579C94.465,-7.182 94.658,-7.883 95.179,-8.275C101.557,-13.073 105.348,-12.776 106.201,-12.626C106.351,-12.599 106.482,-12.588 106.609,-12.588C107.628,-12.588 108.507,-13.312 108.699,-14.311C108.811,-14.87 108.699,-15.446 108.378,-15.913C108.065,-16.388 107.577,-16.712 107.018,-16.818C107.073,-16.81 107.012,-16.81 106.938,-16.81C106.555,-16.81 97.382,-16.703 87.874,-7.565C87.477,-7.189 86.9,-7.063 86.384,-7.254C85.871,-7.437 85.506,-7.906 85.45,-8.45C85.393,-8.948 84.98,-13.336 86.933,-15.489C87.451,-16.064 87.536,-16.925 87.137,-17.578C87.046,-17.724 86.939,-17.856 86.816,-17.969C86.112,-18.607 84.96,-18.545 84.332,-17.852C78.896,-11.853 81.623,-5.532 81.742,-5.267C82.006,-4.671 81.838,-3.979 81.338,-3.569C80.637,-2.99 63.929,10.605 51.454,14.263C46.196,15.805 40.66,16.589 35.004,16.589L34.995,16.589C17.033,16.589 3.488,8.903 2.422,8.274C1.658,7.907 0.846,7.719 0,7.719M34.879,29.021C14.812,29.021 -2.956,21.132 -3.702,20.798C-7.903,18.703 -9.598,13.645 -7.528,9.5C-6.097,6.622 -3.21,4.839 0,4.839C1.307,4.839 2.568,5.137 3.75,5.726C3.777,5.739 3.806,5.754 3.835,5.773C3.971,5.852 17.491,13.711 35.004,13.711C40.389,13.711 45.651,12.963 50.644,11.499C61.084,8.439 75.267,-2.428 78.73,-5.165C77.981,-7.632 76.869,-13.898 82.2,-19.782C83.076,-20.752 84.327,-21.302 85.63,-21.302C86.787,-21.302 87.893,-20.879 88.748,-20.1C89.073,-19.806 89.367,-19.46 89.601,-19.064C90.651,-17.33 90.431,-15.062 89.063,-13.559C88.748,-13.208 88.537,-12.597 88.411,-11.895C97.612,-19.45 105.945,-19.69 106.938,-19.69C107.271,-19.69 107.482,-19.662 107.568,-19.642C108.884,-19.388 110.019,-18.631 110.771,-17.522C111.511,-16.414 111.785,-15.076 111.525,-13.761C111.069,-11.416 109.003,-9.71 106.609,-9.71C106.301,-9.71 105.997,-9.741 105.688,-9.798C105.556,-9.814 104.261,-9.933 102.06,-9.03C102.318,-9.034 102.581,-9.039 102.837,-9.039C107.205,-9.039 109.416,-8.331 110.145,-8.107L110.267,-8.068C112.927,-7.455 114.62,-4.76 114.004,-2.071C113.479,0.227 111.468,1.823 109.117,1.823C108.744,1.823 108.371,1.785 108.01,1.699C107.989,1.698 105.771,1.219 102.854,1.219C102.332,1.219 101.822,1.236 101.322,1.267C102.737,2.783 103.885,4.584 104.744,6.658C105.8,9.213 104.581,12.149 102.026,13.205C101.578,13.391 101.102,13.509 100.609,13.561C98.392,13.788 96.318,12.521 95.479,10.485C94.87,9.025 93.268,7.586 90.83,6.326C90.29,6.051 89.725,5.788 89.126,5.533C86.251,8.68 74.602,20.133 52.236,26.689C46.962,28.239 41.125,29.021 34.879,29.021" style="fill:rgb(13,34,37);fill-rule:nonzero;"/>
        </g>
        <g transform="matrix(1,0,0,1,364.495,360.552)">
            <path d="M0,-94.27C8.766,-98.118 20.217,-90.746 16.035,-79.556C11.852,-68.367 -19.83,-26.796 -31.411,-11.472C-42.996,3.848 -50.908,-9.429 -50.908,-9.429L-68.438,-40.31L-68.211,-41.353C-66.734,-48.564 -66.149,-55.726 -66.563,-62.156L-66.636,-63.072C-66.636,-63.072 -42.697,-19.854 -39.708,-21.052C-36.717,-22.245 -18.035,-45.915 -7.871,-61.16C2.288,-76.402 4.239,-79.805 4.239,-79.805L0,-94.27Z" style="fill:white;fill-rule:nonzero;"/>
        </g>
        <g transform="matrix(1,0,0,1,297.582,301.7)">
            <path d="M0,18.311L17.258,48.71C17.273,48.73 20.088,53.325 24.469,53.325C27.614,53.321 30.938,51.031 34.355,46.506L36.128,44.176C48.561,27.738 77.689,-10.748 81.6,-21.21C83.238,-25.597 82.069,-28.704 80.798,-30.544C78.879,-33.297 75.46,-35.009 71.866,-35.009C70.767,-35.009 69.693,-34.849 68.669,-34.538L72.709,-20.769L72.398,-20.237C72.321,-20.096 70.313,-16.615 60.235,-1.508C51.01,12.335 31.468,37.647 27.739,39.14C27.527,39.228 27.306,39.262 27.073,39.262L27.07,39.262C25.871,39.262 24.063,39.262 11.126,17.542C7.608,11.639 4.206,5.688 1.91,1.63C1.851,6.763 1.246,12.257 0.113,17.79L0,18.311ZM24.469,56.197C18.437,56.197 14.919,50.405 14.771,50.161L-3.05,18.775L-2.7,17.191C-1.247,10.073 -0.685,3.012 -1.089,-3.214L-1.637,-10.65L1.536,-4.913C11.854,13.706 23.91,33.641 27.052,36.222C30.719,33.457 47.609,12.252 57.845,-3.108C65.808,-15.044 68.727,-19.731 69.596,-21.152L65.176,-36.224L66.33,-36.733C68.074,-37.497 69.935,-37.886 71.866,-37.886C76.387,-37.886 80.711,-35.7 83.16,-32.182C85.511,-28.79 85.916,-24.535 84.295,-20.202C80.234,-9.343 51.991,27.977 38.416,45.91L36.646,48.248C32.661,53.525 28.562,56.197 24.47,56.197L24.469,56.197Z" style="fill:rgb(13,34,37);fill-rule:nonzero;"/>
        </g>
        <g transform="matrix(1,0,0,1,339.013,337.384)">
            <path d="M0,1.323C0,1.323 -1.702,-1.412 -6.015,-3.68C-6.015,-3.68 -2.924,3.046 -3.125,5.003L0,1.323Z" style="fill:rgb(128,130,133);fill-rule:nonzero;"/>
        </g>
        <g transform="matrix(1,0,0,1,356.343,328.606)">
            <path d="M0,-14.182C-0.559,-14.615 -12.616,-23.554 -29.274,-14.534C-28.885,-15.483 -28.305,-16.487 -27.436,-17.492C-26.232,-18.891 -26.144,-20.873 -27.089,-22.357C-27.299,-22.68 -27.553,-22.981 -27.867,-23.251C-29.573,-24.722 -32.15,-24.528 -33.621,-22.82C-39.575,-15.912 -38.2,-8.797 -37.285,-5.955L-38.103,-6.802L-42.756,-4.074L-36.437,5.677L-30.488,1.032C-23.05,0.84 -16.379,8.692 -16.282,8.796C-15.003,10.33 -12.736,10.54 -11.196,9.265C-9.656,7.987 -9.444,5.712 -10.719,4.17C-10.871,3.99 -12.516,2.046 -15.174,-0.101C-11.724,0.713 -9.186,1.924 -9.116,1.957C-7.093,2.949 -4.652,2.129 -3.649,0.112C-2.649,-1.913 -3.478,-4.358 -5.495,-5.364C-5.919,-5.568 -13.389,-9.199 -21.769,-8.964C-11.871,-12.558 -5.312,-7.964 -4.928,-7.679C-3.137,-6.336 -0.591,-6.681 0.771,-8.464C2.135,-10.256 1.797,-12.817 0,-14.182" style="fill:white;fill-rule:nonzero;"/>
        </g>
        <g transform="matrix(1,0,0,1,326.119,314.878)">
            <path d="M0,13.32C7.884,13.32 14.743,21.252 15.034,21.59C15.798,22.507 17.211,22.635 18.107,21.894C18.561,21.516 18.832,20.993 18.889,20.413C18.939,19.833 18.765,19.268 18.396,18.82C18.232,18.625 16.674,16.785 14.146,14.744C13.618,14.32 13.459,13.596 13.76,12.996C14.053,12.389 14.725,12.072 15.375,12.224C19.072,13.098 21.717,14.384 21.742,14.393C23.042,15.031 24.651,14.468 25.284,13.2C25.599,12.567 25.647,11.848 25.423,11.18C25.195,10.51 24.717,9.97 24.093,9.66C23.794,9.51 16.539,5.974 8.497,6.204C7.803,6.22 7.174,5.728 7.04,5.032C6.911,4.341 7.303,3.653 7.959,3.412C10.62,2.444 13.287,1.958 15.896,1.958C21.954,1.958 25.738,4.588 26.147,4.886C26.622,5.244 27.169,5.429 27.744,5.429C28.578,5.429 29.348,5.048 29.854,4.388C30.73,3.23 30.506,1.57 29.354,0.686C29.137,0.52 23.96,-3.379 15.791,-3.379C11.1,-3.379 6.337,-2.089 1.635,0.458C1.096,0.744 0.441,0.672 -0.014,0.264C-0.464,-0.146 -0.611,-0.786 -0.38,-1.352C0.103,-2.536 0.803,-3.665 1.696,-4.704C2.448,-5.58 2.544,-6.877 1.923,-7.851C1.789,-8.065 1.62,-8.256 1.423,-8.424C0.347,-9.351 -1.398,-9.216 -2.307,-8.151C-7.81,-1.769 -6.507,4.801 -5.693,7.332C-5.482,7.965 -5.748,8.662 -6.313,9.003C-6.887,9.348 -7.623,9.257 -8.089,8.778L-8.127,8.74L-10.506,10.134L-5.864,17.305L-1.149,13.627C-0.906,13.435 -0.607,13.331 -0.299,13.324L0,13.32ZM16.725,25.266C15.221,25.266 13.796,24.604 12.83,23.441C12.781,23.383 6.715,16.364 0.229,16.2L-5.332,20.543C-5.648,20.786 -6.059,20.891 -6.452,20.821C-6.852,20.761 -7.201,20.522 -7.422,20.186L-13.741,10.434C-13.951,10.103 -14.021,9.702 -13.932,9.321C-13.841,8.937 -13.595,8.611 -13.261,8.41L-9.004,5.916C-9.692,2.16 -9.663,-4.027 -4.489,-10.034C-3.438,-11.251 -1.914,-11.946 -0.307,-11.946C1.018,-11.946 2.295,-11.47 3.299,-10.609C3.7,-10.265 4.058,-9.858 4.351,-9.401C5.364,-7.802 5.471,-5.804 4.708,-4.131C8.396,-5.545 12.108,-6.262 15.791,-6.262C24.768,-6.262 30.479,-2.076 31.103,-1.598C33.518,0.243 33.982,3.718 32.14,6.136C31.082,7.514 29.483,8.306 27.744,8.306C27.477,8.306 27.21,8.288 26.944,8.248C27.479,8.82 27.888,9.501 28.147,10.262C28.621,11.658 28.517,13.156 27.861,14.475C26.921,16.365 25.027,17.544 22.914,17.544C22.145,17.544 21.396,17.385 20.687,17.079C21.498,18.104 21.874,19.382 21.749,20.683C21.629,22.029 20.983,23.243 19.941,24.106C19.037,24.852 17.896,25.266 16.725,25.266" style="fill:rgb(13,34,37);fill-rule:nonzero;"/>
        </g>
        <g transform="matrix(1,0,0,1,406.028,359.572)">
            <path d="M0,50.845L-2.876,50.811C-2.828,46.182 -3.476,41.564 -4.802,37.078L-15.44,0.81L-12.674,0L-2.048,36.267C-0.635,41.018 0.057,45.925 0,50.845" style="fill:rgb(13,34,37);fill-rule:nonzero;"/>
        </g>
        <g transform="matrix(-0.281396,-0.959592,-0.959592,0.281396,397.821,304.791)">
            <rect x="-26.316" y="19.707" width="43.227" height="2.876" style="fill:rgb(13,34,37);"/>
        </g>
        <g transform="matrix(1,0,0,1,367.596,197.39)">
            <path d="M0,84.585L-13.732,37.76C-17.256,25.887 -25.193,16.097 -36.083,10.191C-46.973,4.289 -59.508,2.976 -71.385,6.498C-82.862,9.908 -92.464,17.499 -98.416,27.877L-100.912,26.447C-94.588,15.42 -84.395,7.358 -72.204,3.743C-59.592,0 -46.275,1.39 -34.713,7.661C-23.146,13.933 -14.714,24.333 -10.972,36.944L2.761,83.779L0,84.585Z" style="fill:rgb(13,34,37);fill-rule:nonzero;"/>
        </g>
        <g transform="matrix(1,0,0,1,308.002,195.887)">
            <path d="M0,329.456C-90.83,329.456 -164.724,255.56 -164.724,164.728C-164.724,73.897 -90.83,0.001 0,0.001C90.831,0.001 164.729,73.897 164.729,164.728C164.729,255.56 90.831,329.456 0,329.456M0,-47.084C-116.979,-47.084 -211.809,47.748 -211.809,164.728C-211.809,281.708 -116.979,376.54 0,376.54C116.982,376.54 211.813,281.708 211.813,164.728C211.813,47.748 116.982,-47.084 0,-47.084" style="fill:rgb(237,193,184);fill-rule:nonzero;"/>
        </g>
        <g transform="matrix(1,0,0,1,308.002,522.539)">
            <path d="M0,-323.849C-89.283,-323.849 -161.921,-251.21 -161.921,-161.924C-161.921,-72.638 -89.283,0 0,0C89.286,0 161.926,-72.638 161.926,-161.924C161.926,-251.21 89.286,-323.849 0,-323.849M0,5.605C-92.374,5.605 -167.526,-69.548 -167.526,-161.924C-167.526,-254.3 -92.374,-329.454 0,-329.454C92.377,-329.454 167.531,-254.3 167.531,-161.924C167.531,-69.548 92.377,5.605 0,5.605M0,-370.934C-115.246,-370.934 -209.006,-277.172 -209.006,-161.924C-209.006,-46.676 -115.246,47.085 0,47.085C115.249,47.085 209.011,-46.676 209.011,-161.924C209.011,-277.172 115.249,-370.934 0,-370.934M0,52.69C-118.337,52.69 -214.611,-43.585 -214.611,-161.924C-214.611,-280.263 -118.337,-376.539 0,-376.539C118.34,-376.539 214.617,-280.263 214.617,-161.924C214.617,-43.585 118.34,52.69 0,52.69" style="fill:rgb(13,34,37);fill-rule:nonzero;"/>
        </g>
        <g transform="matrix(1,0,0,1,369.637,490.879)">
            <path d="M0,-20.847C-5.381,-19.936 -10.484,-23.569 -11.393,-28.95C-12.305,-34.332 -8.677,-39.437 -3.291,-40.346L81.449,-58.045C81.449,-58.045 94.766,-60.491 98.757,-39.373C102.74,-18.258 109.11,22.385 109.11,22.385C109.11,22.385 132.18,24.297 132.2,27.72C132.225,31.15 99.55,39.644 91.578,30.612L77.235,-35.597L0,-20.847Z" style="fill:rgb(13,34,37);fill-rule:nonzero;"/>
        </g>
        <g transform="matrix(1,0,0,1,352.473,535.945)">
            <path d="M0,49.212C-0.395,49.059 -0.823,49.016 -1.255,49.02L-63.584,19.551L-39.586,-27.811C-37.532,-33.187 -40.227,-39.218 -45.6,-41.27C-50.978,-43.323 -57,-40.628 -59.058,-35.251C-59.058,-35.251 -87.173,12.767 -89.406,19.551C-90.627,23.266 -94.394,31.871 -79.406,37.309C-67.99,41.444 -30.275,57.391 -14.053,64.28C-14.114,64.43 -14.176,64.567 -14.229,64.714C-18.078,74.811 -21.044,89.48 -17.037,91.008C-13.028,92.535 -3.567,80.341 0.28,70.253C4.135,60.158 4.006,50.739 0,49.212" style="fill:rgb(13,34,37);fill-rule:nonzero;"/>
        </g>
        <g transform="matrix(1,0,0,1,171.561,372.884)">
            <path d="M0,-8.578C-1.994,-13.196 -3.158,-19.737 -3.158,-19.737C-2.798,-20.038 5.691,-27.222 2.222,-39.608C1.54,-42.029 -0.979,-43.445 -3.402,-42.763C-3.842,-42.638 -4.251,-42.458 -4.615,-42.224C-6.273,-41.177 -7.121,-39.128 -6.563,-37.146C-5.656,-33.913 -8.9,-28.862 -8.9,-28.862C-15.559,-47.514 -28.056,-53.948 -28.852,-54.168C-31.569,-54.917 -34.375,-53.324 -35.128,-50.613C-35.871,-47.906 -34.304,-45.116 -31.611,-44.344C-31.02,-44.165 -26.418,-42.545 -21.56,-32.807C-33.181,-40.597 -38.896,-40.909 -39.565,-41.071C-42.308,-41.736 -45.067,-40.051 -45.722,-37.314C-46.385,-34.57 -44.706,-31.828 -41.978,-31.158C-41.835,-31.124 -34.491,-29.233 -28.765,-24.615C-32.261,-24.078 -36.207,-22.581 -40.105,-19.197C-42.228,-17.347 -42.451,-14.122 -40.603,-12C-40.268,-11.612 -39.888,-11.293 -39.479,-11.027C-37.622,-9.861 -35.143,-9.981 -33.401,-11.499C-30.976,-13.61 -27.145,-14.303 -23.488,-14.36C-21.979,-14.374 -20.503,-14.292 -19.166,-14.154C-19.166,-14.154 3.561,46.339 64.215,42.208C64.215,42.208 61.786,32.801 61.398,28.928C41.362,27.638 10.184,14.988 0,-8.578" style="fill:rgb(13,34,37);fill-rule:nonzero;"/>
        </g>
        <g transform="matrix(1,0,0,1,462.541,437.464)">
            <path d="M0,83.339C2.131,85.483 6.399,86.618 12.364,86.618L12.37,86.618C23.338,86.618 35.144,82.924 37.577,81.134C35.304,79.661 25.062,77.976 16.087,77.235L14.963,77.138L14.788,76.022C14.725,75.616 8.371,35.162 4.434,14.31C1.437,-1.563 -6.791,-3.276 -10.191,-3.276C-10.823,-3.276 -11.205,-3.215 -11.205,-3.215L-95.905,14.478C-98.182,14.862 -100.13,16.085 -101.437,17.925C-102.742,19.758 -103.257,21.999 -102.88,24.231C-102.19,28.31 -98.69,31.268 -94.559,31.268C-94.089,31.268 -93.608,31.229 -93.145,31.151L-14.56,16.144L0,83.339ZM12.364,89.492C5.205,89.492 0.237,87.977 -2.404,84.981L-2.649,84.703L-16.781,19.499L-92.635,33.983C-93.287,34.099 -93.926,34.144 -94.559,34.144C-100.102,34.144 -104.795,30.175 -105.72,24.706C-106.221,21.723 -105.53,18.72 -103.775,16.257C-102.027,13.79 -99.418,12.152 -96.437,11.651L-11.752,-6.039C-11.659,-6.056 -11.09,-6.153 -10.191,-6.153C2.516,-6.153 6.383,9.103 7.266,13.775C10.839,32.726 16.401,67.794 17.451,74.465C19.437,74.654 23.721,75.097 27.969,75.763C38.54,77.424 40.72,79.112 40.735,81.134C40.735,81.746 40.472,82.327 39.928,82.872C37.054,85.765 23.177,89.492 12.37,89.492L12.364,89.492Z" style="fill:rgb(13,34,37);fill-rule:nonzero;"/>
        </g>
        <g transform="matrix(1,0,0,1,148.538,376.871)">
            <path d="M0,-19.918C1.304,-19.918 2.654,-19.84 4.017,-19.701C4.612,-19.639 5.115,-19.248 5.325,-18.695C5.535,-18.139 26.879,36.854 81.354,36.858L81.356,36.858C82.639,36.858 83.945,36.823 85.253,36.765C84.616,34.187 83.504,29.512 83.03,26.408C63.231,24.684 31.908,11.954 21.584,-11.939C19.54,-16.676 18.367,-23.177 18.318,-23.454C18.222,-24.007 18.426,-24.572 18.861,-24.934C19.191,-25.21 26.921,-31.787 23.73,-43.171C23.3,-44.721 21.612,-45.678 20.041,-45.238C19.759,-45.164 19.492,-45.043 19.245,-44.886C18.143,-44.184 17.617,-42.815 17.973,-41.555C19.04,-37.761 15.815,-32.578 15.443,-32.004C15.123,-31.495 14.539,-31.222 13.943,-31.286C13.346,-31.355 12.842,-31.756 12.642,-32.32C6.111,-50.638 -6.199,-56.617 -6.321,-56.665C-6.558,-56.729 -6.872,-56.77 -7.188,-56.77C-8.767,-56.77 -10.172,-55.705 -10.591,-54.174C-11.108,-52.316 -10.014,-50.366 -8.16,-49.84C-7.183,-49.552 -2.176,-47.605 2.869,-37.493C3.183,-36.859 3.034,-36.09 2.5,-35.615C1.962,-35.147 1.179,-35.093 0.587,-35.493C-4.111,-38.641 -10.889,-42.577 -16.49,-43.454C-16.687,-43.483 -16.828,-43.511 -16.91,-43.531C-18.801,-43.993 -20.726,-42.788 -21.177,-40.929C-21.631,-39.044 -20.468,-37.132 -18.581,-36.667C-18.246,-36.584 -10.697,-34.608 -4.757,-29.821C-4.271,-29.43 -4.062,-28.795 -4.224,-28.187C-4.388,-27.588 -4.889,-27.138 -5.505,-27.047C-9.319,-26.466 -12.865,-24.766 -16.051,-21.998C-17.521,-20.721 -17.674,-18.484 -16.396,-17.017C-16.167,-16.757 -15.903,-16.53 -15.616,-16.351C-14.339,-15.543 -12.561,-15.668 -11.411,-16.673C-9.021,-18.752 -5.348,-19.84 -0.489,-19.915L0,-19.918ZM81.356,39.991L81.354,39.991C51.711,39.991 31.811,24.321 20.331,11.176C9.599,-1.115 4.158,-13.256 2.754,-16.665C1.816,-16.739 0.893,-16.778 0,-16.778L-0.444,-16.771C-4.479,-16.714 -7.558,-15.86 -9.35,-14.302C-11.521,-12.413 -14.87,-12.16 -17.292,-13.696C-17.837,-14.033 -18.337,-14.464 -18.764,-14.955C-21.179,-17.729 -20.89,-21.947 -18.111,-24.37C-15.457,-26.677 -12.566,-28.339 -9.485,-29.328C-14.236,-32.288 -19.102,-33.561 -19.343,-33.619C-22.89,-34.495 -25.085,-38.097 -24.228,-41.668C-23.502,-44.671 -20.835,-46.777 -17.746,-46.777C-17.22,-46.777 -16.691,-46.706 -16.174,-46.587L-16.003,-46.556C-11.862,-45.91 -7.25,-43.819 -3.163,-41.509C-6.4,-45.978 -8.906,-46.786 -9.039,-46.826C-12.525,-47.823 -14.589,-51.499 -13.62,-55.012C-12.821,-57.9 -10.178,-59.909 -7.188,-59.909C-6.59,-59.909 -5.992,-59.831 -5.411,-59.668C-5.285,-59.637 6.856,-54.337 14.31,-36.697C14.877,-38.145 15.234,-39.671 14.948,-40.704C14.222,-43.286 15.297,-46.1 17.567,-47.538C18.079,-47.862 18.626,-48.107 19.202,-48.266C19.734,-48.412 20.297,-48.492 20.852,-48.492C23.587,-48.492 26.014,-46.651 26.753,-44.02C29.931,-32.698 23.745,-25.33 21.57,-23.166C21.952,-21.292 22.977,-16.637 24.466,-13.189C34.491,10.018 65.62,22.159 84.522,23.372C85.288,23.419 85.905,24.02 85.982,24.782C86.354,28.501 88.737,37.737 88.759,37.831C88.878,38.285 88.786,38.759 88.514,39.144C88.242,39.518 87.813,39.756 87.347,39.79C85.341,39.923 83.324,39.991 81.356,39.991" style="fill:rgb(13,34,37);fill-rule:nonzero;"/>
        </g>
        <g transform="matrix(1,0,0,1,303.154,625.567)">
            <path d="M0,-130.064C-3.669,-130.064 -7.004,-127.752 -8.315,-124.334L-8.424,-124.107C-18.121,-107.549 -36.915,-74.841 -38.641,-69.593L-38.833,-69.02C-40.184,-65.055 -42.444,-58.418 -29.569,-53.75C-18.101,-49.59 20.007,-33.481 35.859,-26.747L37.212,-26.168L36.509,-24.363C34.513,-19.143 32.922,-13.151 32.243,-8.337C31.358,-2.048 32.363,-0.216 32.821,-0.043C32.878,-0.021 32.949,-0.013 33.027,-0.013C36.15,-0.013 44.51,-10.299 48.178,-19.913C52.159,-30.351 51.205,-38.057 48.774,-38.988C48.619,-39.044 48.413,-39.074 48.164,-39.074L47.804,-39.068L47.409,-39.221L-16.33,-69.36L8.337,-118.052C9.157,-120.251 9.08,-122.641 8.121,-124.789C7.153,-126.956 5.396,-128.613 3.177,-129.465C2.147,-129.861 1.083,-130.064 0,-130.064M33.027,3.04C32.573,3.04 32.142,2.958 31.74,2.808C29.096,1.806 28.274,-1.988 29.23,-8.764C29.898,-13.498 31.409,-19.319 33.311,-24.516C16.77,-31.534 -19.521,-46.863 -30.607,-50.883C-46.288,-56.57 -43.085,-65.985 -41.719,-70.006L-41.532,-70.547C-39.306,-77.313 -12.932,-122.426 -11.111,-125.537C-9.328,-130.073 -4.876,-133.104 0,-133.104C1.456,-133.104 2.891,-132.837 4.26,-132.312C7.24,-131.174 9.6,-128.943 10.899,-126.034C12.202,-123.114 12.294,-119.875 11.155,-116.894L11.091,-116.749L-12.201,-70.779L48.408,-42.117C48.939,-42.093 49.415,-42.002 49.854,-41.831C55.497,-39.677 54.661,-28.375 51.021,-18.83C47.703,-10.125 38.834,3.04 33.027,3.04" style="fill:rgb(13,34,37);fill-rule:nonzero;"/>
        </g>
        <g transform="matrix(1,0,0,1,177.005,215.634)">
            <path d="M0,-8.044L16.8,-20.803L20.428,-16.027L8.431,-6.917L16.949,4.355L28.972,-4.776L32.6,-0.001L15.799,12.759L0,-8.044Z" style="fill:rgb(241,87,34);fill-rule:nonzero;"/>
        </g>
        <g transform="matrix(1,0,0,1,207.075,201.34)">
            <path d="M0,-7.828L4.475,0.097L12.399,-4.378L7.925,-12.302L0,-7.828ZM-8.171,-10.101L10.198,-20.474L23.042,2.272L17.82,5.222L15.348,0.845L7.424,5.319L9.896,9.696L4.673,12.646L-8.171,-10.101Z" style="fill:rgb(241,87,34);fill-rule:nonzero;"/>
        </g>
        <g transform="matrix(1,0,0,1,230.598,191.131)">
            <path d="M0,-9.773L1.502,-5.987L9.962,-9.343L8.459,-13.13L0,-9.773ZM-7.787,-13.136L11.821,-20.917L17.742,-5.997L3.709,-0.428L7.423,8.933L1.849,11.144L-7.787,-13.136Z" style="fill:rgb(241,87,34);fill-rule:nonzero;"/>
        </g>
        <g transform="matrix(1,0,0,1,248.358,186.61)">
            <path d="M0,-18.51L20.488,-23.539L21.918,-17.714L14.696,-15.941L19.493,3.604L13.685,5.029L8.888,-14.516L1.43,-12.685L0,-18.51Z" style="fill:rgb(241,87,34);fill-rule:nonzero;"/>
        </g>
        <g transform="matrix(1,0,0,1,281.648,180.238)">
            <path d="M0,-13.107L0.944,-4.056L9.995,-5L9.052,-14.051L0,-13.107ZM-6.586,-18.45L14.395,-20.638L17.104,5.343L11.139,5.965L10.616,0.966L1.565,1.909L2.088,6.91L-3.878,7.531L-6.586,-18.45Z" style="fill:rgb(241,87,34);fill-rule:nonzero;"/>
        </g>
        <g transform="matrix(0.999866,-0.016342,-0.016342,-0.999866,301.167,159.592)">
            <rect x="0.213" y="-26.107" width="5.995" height="26.157" style="fill:rgb(241,87,34);"/>
        </g>
        <g transform="matrix(1,0,0,1,313.308,186.991)">
            <path d="M0,-27.826L5.977,-27.314L5.752,-24.689L14.037,-14.778L15.043,-26.539L21.019,-26.029L18.795,0L12.819,-0.511L13.245,-5.52L4.96,-15.432L3.75,-1.287L-2.225,-1.798L0,-27.826Z" style="fill:rgb(241,87,34);fill-rule:nonzero;"/>
        </g>
        <g transform="matrix(1,0,0,1,348.004,193.746)">
            <path d="M0,-30.661L20.355,-25.259L18.851,-19.452L4.259,-23.325L3.214,-19.389L17.807,-15.516L13.689,0L-6.7,-5.412L-5.162,-11.209L9.426,-7.319L10.476,-11.274L-4.118,-15.146L0,-30.661Z" style="fill:rgb(241,87,34);fill-rule:nonzero;"/>
        </g>
        <g transform="matrix(1,0,0,1,374.379,202.606)">
            <path d="M0,-32.283L5.533,-29.967L-2.238,-11.364L6.155,-7.849L13.942,-26.445L19.476,-24.129L9.372,0L-10.103,-8.156L0,-32.283Z" style="fill:rgb(241,87,34);fill-rule:nonzero;"/>
        </g>
        <g transform="matrix(1,0,0,1,399.492,214.296)">
            <path d="M0,-33.216L3.359,-31.235L5.769,-22.11L14.875,-24.45L18.174,-22.505L4.912,0L-0.255,-3.044L6.803,-15.021L1.557,-13.666L0.317,-14.396L-1.038,-19.642L-8.096,-7.665L-13.264,-10.711L0,-33.216Z" style="fill:rgb(241,87,34);fill-rule:nonzero;"/>
        </g>
        <g transform="matrix(1,0,0,1,422.935,228.729)">
            <path d="M0,-33.575L3.063,-31.159L4.218,-21.792L13.555,-22.884L16.564,-20.511L0.387,0L-4.322,-3.714L4.286,-14.63L-1.093,-13.994L-2.223,-14.886L-2.859,-20.265L-11.468,-9.35L-16.177,-13.064L0,-33.575Z" style="fill:rgb(241,87,34);fill-rule:nonzero;"/>
        </g>
        <g transform="matrix(1,0,0,1,444.327,245.636)">
            <path d="M0,-33.321L14.655,-18.145L10.339,-13.98L-0.147,-24.84L-3.078,-22.011L3.918,-14.766L-0.384,-10.613L-7.212,-17.682L-10.166,-14.878L0.178,-4.166L-4.139,0L-18.792,-15.176L0,-33.321Z" style="fill:rgb(241,87,34);fill-rule:nonzero;"/>
        </g>
        <g transform="matrix(1,0,0,1,461.873,256.219)">
            <path d="M0,-15.695L-3.283,-13.284L2.101,-5.949L5.386,-8.358L0,-15.695ZM1.287,-24.079L13.768,-7.071L0.827,2.426L-2.997,-2.787L-4.398,6.262L-7.292,8.384L-10.84,3.549L-8.831,-9.214L-16.224,-3.788L-19.773,-8.623L1.287,-24.079Z" style="fill:rgb(241,87,34);fill-rule:nonzero;"/>
        </g>
        <g transform="matrix(1,0,0,1,483.045,291.335)">
            <path d="M0,-30.501L9.352,-11.63L3.992,-8.936L-2.711,-22.464L-6.36,-20.655L0.344,-7.127L-14.039,0L-23.406,-18.902L-18.033,-21.566L-11.344,-8.03L-7.678,-9.846L-14.382,-23.374L0,-30.501Z" style="fill:rgb(241,87,34);fill-rule:nonzero;"/>
        </g>
        <g transform="matrix(1,0,0,1,491.205,306.158)">
            <path d="M0,-13.115L-8.631,-10.225L-5.738,-1.596L2.89,-4.487L0,-13.115ZM3.781,-20.708L10.482,-0.706L-14.287,7.593L-16.191,1.906L-11.426,0.309L-14.316,-8.32L-19.084,-6.723L-20.989,-12.411L3.781,-20.708Z" style="fill:rgb(241,87,34);fill-rule:nonzero;"/>
        </g>
        <g transform="matrix(1,0,0,1,503.461,337.048)">
            <path d="M0,-25.593L1.109,-19.699L-18.697,-15.947L-17.014,-7.005L2.799,-10.739L3.911,-4.844L-21.795,0L-25.706,-20.748L0,-25.593Z" style="fill:rgb(241,87,34);fill-rule:nonzero;"/>
        </g>
        <g transform="matrix(1,0,0,1,508.313,360.875)">
            <path d="M0,-22.374L1.053,-1.339L-4.937,-1.005L-5.691,-16.084L-9.76,-15.882L-9.006,-0.801L-25.036,0L-26.092,-21.07L-20.102,-21.369L-19.363,-6.288L-15.278,-6.494L-16.032,-21.573L0,-22.374Z" style="fill:rgb(241,87,34);fill-rule:nonzero;"/>
        </g>
        <g transform="matrix(1,0,0,1,502.975,379.098)">
            <path d="M0,-7.876L-9.067,-8.644L-9.836,0.425L-0.769,1.193L0,-7.876ZM6.482,-13.346L4.702,7.674L-21.327,5.47L-20.822,-0.506L-15.813,-0.082L-15.045,-9.149L-20.054,-9.574L-19.547,-15.55L6.482,-13.346Z" style="fill:rgb(241,87,34);fill-rule:nonzero;"/>
        </g>
        <g transform="matrix(1,0,0,1,506.906,407.935)">
            <path d="M0,-14.853L-4.628,5.729L-10.479,4.413L-7.168,-10.318L-20.951,-13.416L-22.947,-4.537L-13.139,-2.332L-14.453,3.519L-30.114,0L-25.486,-20.582L0,-14.853Z" style="fill:rgb(241,87,34);fill-rule:nonzero;"/>
        </g>
        <g transform="matrix(1,0,0,1,500.685,430.311)">
            <path d="M0,-10.601L-7.394,9.157L-13.012,7.055L-7.719,-7.086L-11.533,-8.513L-15.064,0.919L-20.665,-1.177L-17.221,-10.383L-21.022,-11.843L-26.242,2.103L-31.858,-0.001L-24.466,-19.758L0,-10.601Z" style="fill:rgb(241,87,34);fill-rule:nonzero;"/>
        </g>
        <g transform="matrix(1,0,0,1,130.118,393.809)">
            <path d="M0,-24.452L0.81,-18.509L-19.162,-15.768L-17.933,-6.753L2.042,-9.475L2.852,-3.533L-23.065,0L-25.917,-20.92L0,-24.452Z" style="fill:rgb(89,37,46);fill-rule:nonzero;"/>
        </g>
        <g transform="matrix(1,0,0,1,133.429,415.413)">
            <path d="M0,-21.931L5.657,-1.607L-0.121,0L-4.169,-14.544L-8.094,-13.452L-5.393,-3.75L-11.155,-2.146L-13.855,-11.849L-23.558,-9.149L-25.166,-14.925L0,-21.931Z" style="fill:rgb(89,37,46);fill-rule:nonzero;"/>
        </g>
        <g transform="matrix(1,0,0,1,139.971,446.62)">
            <path d="M0,-29.722L8.359,-10.354L2.853,-7.976L-3.117,-21.806L-16.101,-16.24L-10.119,-2.378L-15.625,0L-23.984,-19.368L0,-29.722Z" style="fill:rgb(89,37,46);fill-rule:nonzero;"/>
        </g>
        <g transform="matrix(1,0,0,1,152.798,477.077)">
            <path d="M0,-31.993L3.286,-26.977L-13.579,-15.931L-5.295,-3.286L-10.313,0L-21.882,-17.66L0,-31.993Z" style="fill:rgb(89,37,46);fill-rule:nonzero;"/>
        </g>
        <g transform="matrix(1,0,0,1,166.161,498.495)">
            <path d="M0,-33.052L13.821,-17.114L9.29,-13.185L-0.602,-24.593L-3.679,-21.924L2.919,-14.315L-1.6,-10.397L-8.039,-17.822L-11.139,-15.179L-1.384,-3.93L-5.915,0L-19.736,-15.938L0,-33.052Z" style="fill:rgb(89,37,46);fill-rule:nonzero;"/>
        </g>
        <g transform="matrix(1,0,0,1,182.685,508.926)">
            <path d="M0,-16.616L-6.016,-9.789L0.812,-3.772L6.829,-10.6L0,-16.616ZM-0.536,-25.081L15.293,-11.137L-1.974,8.465L-6.475,4.5L-3.152,0.729L-9.98,-5.287L-13.304,-1.515L-17.803,-5.481L-0.536,-25.081Z" style="fill:rgb(89,37,46);fill-rule:nonzero;"/>
        </g>
        <g transform="matrix(1,0,0,1,200.435,533.362)">
            <path d="M0,-33.437L17.553,-21.736L14.227,-16.746L1.664,-25.121L-6.172,-13.367L1.4,-8.32L6.976,-16.684L11.966,-13.357L3.063,0L-14.49,-11.703L0,-33.437Z" style="fill:rgb(89,37,46);fill-rule:nonzero;"/>
        </g>
        <g transform="matrix(1,0,0,1,220.616,546.119)">
            <path d="M0,-32.76L5.393,-30.135L-3.416,-12L4.767,-8.018L13.591,-26.144L18.984,-23.519L7.534,0L-11.449,-9.24L0,-32.76Z" style="fill:rgb(89,37,46);fill-rule:nonzero;"/>
        </g>
        <g transform="matrix(1,0,0,1,242.523,555.402)">
            <path d="M0,-31.398L20.045,-24.82L18.174,-19.122L3.829,-23.829L2.559,-19.957L12.128,-16.819L10.264,-11.134L0.925,-14.2L-0.378,-10.339L13.77,-5.698L11.9,0L-8.144,-6.577L0,-31.398Z" style="fill:rgb(89,37,46);fill-rule:nonzero;"/>
        </g>
        <g transform="matrix(1,0,0,1,378.047,487.154)">
            <path d="M0,-81.394C-2.378,-86.06 -0.526,-91.775 4.145,-94.16C8.808,-96.544 14.526,-94.689 16.907,-90.021L32.965,-67.908C32.965,-67.908 41.929,-57.468 32.965,-47.304L-4.982,0.611C-4.982,0.611 6.967,8.471 4.575,11.809C2.185,15.15 -12.159,12.975 -21.127,0.611L18.325,-52.389L0,-81.394Z" style="fill:rgb(13,34,37);fill-rule:nonzero;"/>
        </g>
        <g transform="matrix(1,0,0,1,378.047,487.154)">
            <path d="M0,-81.394C-2.378,-86.06 -0.526,-91.775 4.145,-94.16C8.808,-96.544 14.526,-94.689 16.907,-90.021L32.965,-67.908C32.965,-67.908 41.929,-57.468 32.965,-47.304L-4.982,0.611C-4.982,0.611 6.967,8.471 4.575,11.809C2.185,15.15 -12.159,12.975 -21.127,0.611L18.325,-52.389L0,-81.394Z" style="fill:white;fill-rule:nonzero;"/>
        </g>
        <g transform="matrix(1,0,0,1,358.716,404.562)">
            <path d="M0,83.201C5.96,90.87 14.286,94.372 19.665,94.372C21.634,94.372 22.524,93.865 22.738,93.567C22.756,93.536 22.81,93.467 22.768,93.222C22.366,91.06 17.14,86.765 13.555,84.405L12.238,83.546L51.17,34.393C59.224,25.258 51.534,16.008 51.202,15.612L51.131,15.524L34.956,-6.778C33.575,-9.486 30.825,-11.17 27.779,-11.17C26.497,-11.17 25.27,-10.873 24.127,-10.289C20.192,-8.275 18.607,-3.455 20.585,0.489L39.4,30.271L0,83.201ZM19.665,97.249C13.385,97.249 3.619,93.119 -2.959,84.048L-3.577,83.192L35.91,30.14L18.045,1.856C15.312,-3.512 17.45,-10.105 22.817,-12.851C24.349,-13.632 26.07,-14.048 27.779,-14.048C31.869,-14.048 35.572,-11.805 37.467,-8.185L53.437,13.805C54.17,14.701 62.701,25.67 53.378,36.238L16.432,82.887C19.259,84.876 24.957,89.26 25.597,92.698C25.774,93.644 25.59,94.524 25.077,95.246C24.132,96.555 22.269,97.249 19.665,97.249" style="fill:rgb(13,34,37);fill-rule:nonzero;"/>
        </g>
        <g transform="matrix(1,0,0,1,378.047,487.154)">
            <path d="M0,-81.394C-2.378,-86.06 -0.526,-91.775 4.145,-94.16C8.808,-96.544 14.526,-94.689 16.907,-90.021L32.965,-67.908C32.965,-67.908 41.929,-57.468 32.965,-47.304L-4.982,0.611C-4.982,0.611 6.967,8.471 4.575,11.809C2.185,15.15 -12.159,12.975 -21.127,0.611L18.325,-52.389L0,-81.394Z" style="fill:white;fill-rule:nonzero;"/>
        </g>
        <g transform="matrix(1,0,0,1,358.716,404.562)">
            <path d="M0,83.201C5.96,90.87 14.286,94.372 19.665,94.372C21.634,94.372 22.524,93.865 22.738,93.567C22.756,93.536 22.81,93.467 22.768,93.222C22.366,91.06 17.14,86.765 13.555,84.405L12.238,83.546L51.17,34.393C59.224,25.258 51.534,16.008 51.202,15.612L51.131,15.524L34.956,-6.778C33.575,-9.486 30.825,-11.17 27.779,-11.17C26.497,-11.17 25.27,-10.873 24.127,-10.289C20.192,-8.275 18.607,-3.455 20.585,0.489L39.4,30.271L0,83.201ZM19.665,97.249C13.385,97.249 3.619,93.119 -2.959,84.048L-3.577,83.192L35.91,30.14L18.045,1.856C15.312,-3.512 17.45,-10.105 22.817,-12.851C24.349,-13.632 26.07,-14.048 27.779,-14.048C31.869,-14.048 35.572,-11.805 37.467,-8.185L53.437,13.805C54.17,14.701 62.701,25.67 53.378,36.238L16.432,82.887C19.259,84.876 24.957,89.26 25.597,92.698C25.774,93.644 25.59,94.524 25.077,95.246C24.132,96.555 22.269,97.249 19.665,97.249" style="fill:rgb(13,34,37);fill-rule:nonzero;"/>
        </g>
        <g transform="matrix(1,0,0,1,306.898,204.133)">
            <path d="M0,-21.283C-2.472,-22.211 -5.229,-20.957 -6.156,-18.486L-9.602,-9.291C-12.778,-14.654 -17.109,-20.882 -21.671,-24.286C-23.783,-25.864 -26.781,-25.431 -28.359,-23.314C-29.938,-21.194 -29.501,-18.2 -27.388,-16.619C-24.537,-14.491 -21.449,-10.265 -18.829,-6.04C-23.089,-7.829 -26.521,-9.797 -27.356,-11.342C-28.612,-13.665 -31.513,-14.532 -33.833,-13.274C-36.16,-12.02 -37.024,-9.116 -35.769,-6.793C-33.471,-2.544 -27.607,0.758 -21.907,3.099C-18.301,4.581 -11.096,-1.622 -11.096,-1.622L-1.584,-3.433L2.801,-15.13C3.727,-17.6 2.475,-20.357 0,-21.283" style="fill:rgb(190,71,38);fill-rule:nonzero;"/>
        </g>
        <g transform="matrix(1,0,0,1,275.333,194.408)">
            <path d="M0,-2.686C-0.557,-2.686 -1.09,-2.551 -1.586,-2.284C-2.373,-1.857 -2.945,-1.153 -3.198,-0.297C-3.457,0.559 -3.363,1.46 -2.937,2.249C-1.245,5.377 3.059,8.468 9.525,11.21C14.228,8.362 19.835,6.785 20.081,6.716C20.12,6.707 20.161,6.698 20.2,6.688L28.92,5.03L33.017,-5.909C33.335,-6.746 33.3,-7.653 32.93,-8.465C32.559,-9.281 31.897,-9.897 31.062,-10.213C30.684,-10.356 30.288,-10.426 29.887,-10.426C28.503,-10.426 27.242,-9.552 26.761,-8.255L23.314,0.937C23.118,1.457 22.645,1.816 22.09,1.865C21.539,1.918 21.01,1.644 20.727,1.167C16.654,-5.697 12.614,-10.741 9.035,-13.408C8.457,-13.842 7.767,-14.069 7.041,-14.069C5.973,-14.069 4.994,-13.58 4.36,-12.727C3.824,-12.011 3.602,-11.131 3.732,-10.246C3.858,-9.365 4.32,-8.585 5.039,-8.049C7.654,-6.101 10.651,-2.407 13.96,2.928C14.285,3.46 14.236,4.147 13.826,4.622C13.419,5.099 12.751,5.254 12.176,5.015C7.006,2.837 3.9,0.836 2.944,-0.933C2.361,-2.015 1.228,-2.686 0,-2.686M9.658,14.262C9.473,14.262 9.288,14.227 9.112,14.155C1.539,11.046 -3.367,7.5 -5.469,3.616C-6.258,2.153 -6.431,0.472 -5.959,-1.118C-5.481,-2.71 -4.414,-4.024 -2.953,-4.815C-2.05,-5.306 -1.029,-5.564 0,-5.564C2.285,-5.564 4.386,-4.314 5.477,-2.3C5.75,-1.797 6.732,-0.951 8.636,0.121C6.675,-2.589 4.872,-4.583 3.32,-5.742C1.985,-6.737 1.122,-8.188 0.882,-9.832C0.642,-11.477 1.06,-13.114 2.051,-14.448C3.22,-16.012 5.084,-16.948 7.041,-16.948C8.388,-16.948 9.672,-16.523 10.758,-15.712C14.221,-13.131 17.878,-8.805 21.653,-2.833L24.062,-9.266C24.967,-11.68 27.308,-13.303 29.887,-13.303C30.633,-13.303 31.373,-13.17 32.071,-12.906C33.625,-12.325 34.861,-11.17 35.55,-9.655C36.238,-8.144 36.297,-6.456 35.713,-4.898L31.33,6.799C31.153,7.267 30.747,7.613 30.249,7.706L20.801,9.504C20.196,9.677 14.653,11.317 10.437,14.03C10.201,14.185 9.929,14.262 9.658,14.262" style="fill:rgb(13,34,37);fill-rule:nonzero;"/>
        </g>
        <g transform="matrix(1,0,0,1,110.213,217.777)">
            <path d="M0,144.458L-0.007,142.838C-0.007,88.451 21.693,37.723 61.096,0L64.971,4.048C26.685,40.705 5.599,89.994 5.599,142.838L5.605,144.411L0,144.458Z" style="fill:rgb(13,34,37);fill-rule:nonzero;"/>
        </g>
        <g transform="matrix(1,0,0,1,308.002,444.157)">
            <path d="M0,114.257C-14.107,114.257 -28.198,112.755 -41.881,109.793L-40.695,104.316C-27.401,107.194 -13.709,108.651 0,108.651C36.752,108.651 72.497,98.197 103.375,78.42C133.437,59.164 157.538,32.047 173.07,0L178.114,2.445C162.131,35.423 137.331,63.326 106.398,83.141C74.617,103.496 37.825,114.257 0,114.257" style="fill:rgb(13,34,37);fill-rule:nonzero;"/>
        </g>
        <g transform="matrix(1,0,0,1,308.002,439.398)">
            <path d="M0,105.562C-12.914,105.562 -25.817,104.212 -38.352,101.548L-37.187,96.067C-25.034,98.649 -12.522,99.957 0,99.957C33.966,99.957 67.034,90.346 95.628,72.167C123.464,54.47 145.869,29.515 160.422,0L165.451,2.479C150.441,32.916 127.338,58.649 98.637,76.897C69.143,95.651 35.033,105.562 0,105.562" style="fill:rgb(13,34,37);fill-rule:nonzero;"/>
        </g>
        <g transform="matrix(-1,0,0,1,178.269,228.093)">
            <path d="M49.004,132.522L54.61,132.522C54.61,82.162 34.608,35.098 -1.711,0L-5.606,4.031C29.609,38.063 49.004,83.696 49.004,132.522" style="fill:rgb(13,34,37);fill-rule:nonzero;"/>
        </g>
    </g>
</svg>
